<?xml version="1.0" encoding="UTF-8" standalone="no"?>
<svg
   xmlns:dc="http://purl.org/dc/elements/1.1/"
   xmlns:cc="http://creativecommons.org/ns#"
   xmlns:rdf="http://www.w3.org/1999/02/22-rdf-syntax-ns#"
   xmlns:svg="http://www.w3.org/2000/svg"
   xmlns="http://www.w3.org/2000/svg"
   xmlns:sodipodi="http://sodipodi.sourceforge.net/DTD/sodipodi-0.dtd"
   xmlns:inkscape="http://www.inkscape.org/namespaces/inkscape"
   width="246.993812887mm"
   height="152.343414222mm"
   viewBox="0 0 246.993812887 152.343414222"
   version="1.1"
   id="svg4572"
   sodipodi:docname="screen.svg"
   inkscape:version="0.92.2 5c3e80d, 2017-08-06"
   inkscape:label="Cat">
  <metadata
     id="metadata4578">
    <rdf:RDF>
      <cc:Work
         rdf:about="">
        <dc:format>image/svg+xml</dc:format>
        <dc:type
           rdf:resource="http://purl.org/dc/dcmitype/StillImage" />
        <dc:title></dc:title>
      </cc:Work>
    </rdf:RDF>
  </metadata>
  <defs
     id="defs4576" />
  <sodipodi:namedview
     pagecolor="#ffffff"
     bordercolor="#666666"
     borderopacity="1"
     objecttolerance="10"
     gridtolerance="10"
     guidetolerance="10"
     inkscape:pageopacity="0"
     inkscape:pageshadow="2"
     inkscape:window-width="1440"
     inkscape:window-height="813"
     id="namedview4574"
     showgrid="false"
     inkscape:zoom="1.0146423"
     inkscape:cx="466.75997"
     inkscape:cy="287.89307"
     inkscape:window-x="0"
     inkscape:window-y="0"
     inkscape:window-maximized="1"
     inkscape:current-layer="g5210"
     showguides="true"
     inkscape:guide-bbox="true"
     inkscape:document-units="mm"
     inkscape:measure-start="289.812,9.59644"
     inkscape:measure-end="289.812,80.6101"
     inkscape:snap-global="true" />
  <g
     id="g5210"
     transform="matrix(-1,0,0,1,246.99382,0)"
     style="display:inline"
     sodipodi:insensitive="true">
    <g
       sodipodi:insensitive="true"
       style="display:inline;stroke:#0000ff;stroke-width:0.01;stroke-miterlimit:4;stroke-dasharray:none;stroke-opacity:1;fill:none"
       transform="matrix(1,0,0,-1,123.49691,123.01161)"
       id="Shape2DView">
      <path
         inkscape:connector-curvature="0"
         style="fill:none;fill-rule:evenodd;stroke:#0000ff;stroke-width:0.01;stroke-miterlimit:4;stroke-dasharray:none;stroke-opacity:1"
         d="M -114.7,120.5901 H 114.7"
         id="Shape2DView_nwe0000" />
      <path
         inkscape:connector-curvature="0"
         style="fill:none;fill-rule:evenodd;stroke:#0000ff;stroke-width:0.01;stroke-miterlimit:4;stroke-dasharray:none;stroke-opacity:1"
         d="M 114.7,120.5901 V -16.410294"
         id="Shape2DView_nwe0001" />
      <path
         inkscape:connector-curvature="0"
         style="fill:none;fill-rule:evenodd;stroke:#0000ff;stroke-width:0.01;stroke-miterlimit:4;stroke-dasharray:none;stroke-opacity:1"
         d="m 114.7,-16.410294 h 6.3754"
         id="Shape2DView_nwe0002" />
      <path
         inkscape:connector-curvature="0"
         style="fill:none;fill-rule:evenodd;stroke:#0000ff;stroke-width:0.01;stroke-miterlimit:4;stroke-dasharray:none;stroke-opacity:1"
         d="m 121.0754,-16.410294 v -10.5"
         id="Shape2DView_nwe0003" />
      <path
         inkscape:connector-curvature="0"
         style="fill:none;fill-rule:evenodd;stroke:#0000ff;stroke-width:0.01;stroke-miterlimit:4;stroke-dasharray:none;stroke-opacity:1"
         d="M 121.0754,-26.910294 H -121.0754"
         id="Shape2DView_nwe0004" />
      <path
         inkscape:connector-curvature="0"
         style="fill:none;fill-rule:evenodd;stroke:#0000ff;stroke-width:0.01;stroke-miterlimit:4;stroke-dasharray:none;stroke-opacity:1"
         d="m -121.0754,-16.410294 v -10.5"
         id="Shape2DView_nwe0005" />
      <path
         inkscape:connector-curvature="0"
         style="fill:none;fill-rule:evenodd;stroke:#0000ff;stroke-width:0.01;stroke-miterlimit:4;stroke-dasharray:none;stroke-opacity:1"
         d="m -114.7,-16.410294 h -6.3754"
         id="Shape2DView_nwe0006" />
      <path
         inkscape:connector-curvature="0"
         style="display:inline;fill:none;fill-rule:evenodd;stroke:#0000ff;stroke-width:0.01;stroke-miterlimit:4;stroke-dasharray:none;stroke-opacity:1"
         d="M -114.7,120.5901 V -16.410294"
         id="Shape2DView_nwe0007" />
      <title
         id="title4569">Screen2D</title>
    </g>
    <g
       sodipodi:insensitive="true"
       id="text935"
       style="font-style:normal;font-weight:normal;font-size:10.58333302px;line-height:1.25;font-family:sans-serif;letter-spacing:0px;word-spacing:0px;display:inline;fill:#000000;fill-opacity:1;stroke:#ff0000;stroke-width:0.01;stroke-miterlimit:4;stroke-dasharray:none;stroke-opacity:1"
       aria-label="http://lasercat.party">
      <path
         inkscape:connector-curvature="0"
         id="path1005"
         style="font-style:normal;font-variant:normal;font-weight:normal;font-stretch:normal;font-size:11.28888893px;font-family:Phosphate;-inkscape-font-specification:Phosphate;stroke:#ff0000;stroke-width:0.01;stroke-miterlimit:4;stroke-dasharray:none;stroke-opacity:1"
         d="m 76.566818,119.42316 h 2.404534 v 2.56258 h 1.343377 v -2.56258 h 2.415823 v 7.52969 h -2.415823 v -2.78836 h -1.343377 v 2.78836 h -2.404534 z m 1.4224,6.62658 v -2.85609 h 3.318934 v 2.85609 h 0.293511 v -5.72347 h -0.293511 v 2.59645 h -3.318934 v -2.59645 h -0.293511 v 5.72347 z" />
      <path
         inkscape:connector-curvature="0"
         id="path1007"
         style="font-style:normal;font-variant:normal;font-weight:normal;font-stretch:normal;font-size:11.28888893px;font-family:Phosphate;-inkscape-font-specification:Phosphate;stroke:#ff0000;stroke-width:0.01;stroke-miterlimit:4;stroke-dasharray:none;stroke-opacity:1"
         d="M 84.505553,121.39872 H 83.11702 v -1.97556 h 5.260622 v 1.97556 h -1.388533 v 5.55413 h -2.483556 z m 1.388533,4.65102 v -5.45253 h 1.614311 v -0.27094 h -3.522133 v 0.27094 h 1.614311 v 5.45253 z" />
      <path
         inkscape:connector-curvature="0"
         id="path1009"
         style="font-style:normal;font-variant:normal;font-weight:normal;font-stretch:normal;font-size:11.28888893px;font-family:Phosphate;-inkscape-font-specification:Phosphate;stroke:#ff0000;stroke-width:0.01;stroke-miterlimit:4;stroke-dasharray:none;stroke-opacity:1"
         d="m 89.775171,121.39872 h -1.388533 v -1.97556 h 5.260622 v 1.97556 h -1.388533 v 5.55413 h -2.483556 z m 1.388533,4.65102 v -5.45253 h 1.614311 v -0.27094 h -3.522133 v 0.27094 h 1.614311 v 5.45253 z" />
      <path
         inkscape:connector-curvature="0"
         id="path1011"
         style="font-style:normal;font-variant:normal;font-weight:normal;font-stretch:normal;font-size:11.28888893px;font-family:Phosphate;-inkscape-font-specification:Phosphate;stroke:#ff0000;stroke-width:0.01;stroke-miterlimit:4;stroke-dasharray:none;stroke-opacity:1"
         d="m 99.9103,122.29054 q 0,0.77893 -0.270933,1.33209 -0.270933,0.54186 -0.745067,0.88053 -0.462844,0.33867 -1.095022,0.49671 -0.620889,0.15805 -1.343378,0.15805 v 1.79493 h -2.404533 v -7.52969 H 96.4559 q 0.722489,0 1.343378,0.15805 0.632178,0.15804 1.095022,0.49671 0.474134,0.33866 0.745067,0.89182 0.270933,0.54187 0.270933,1.3208 z m -1.095022,0 q 0,-0.508 -0.180622,-0.88053 -0.169334,-0.37254 -0.485422,-0.6096 -0.316089,-0.23707 -0.756356,-0.34996 -0.428978,-0.12418 -0.936978,-0.12418 h -1.275644 v 5.72347 h 0.293511 v -1.79493 H 96.4559 q 0.508,0 0.936978,-0.11289 0.440267,-0.12418 0.756356,-0.36125 0.316088,-0.23706 0.485422,-0.6096 0.180622,-0.37253 0.180622,-0.88053 z m -0.316089,0 q 0,0.48542 -0.169333,0.8128 -0.169334,0.32738 -0.451556,0.51929 -0.282222,0.19191 -0.654755,0.28222 -0.361245,0.079 -0.767645,0.079 h -0.982133 v -3.38666 H 96.4559 q 0.4064,0 0.767645,0.0903 0.372533,0.079 0.654755,0.27093 0.282222,0.19191 0.451556,0.51929 0.169333,0.32738 0.169333,0.8128 z m -2.043289,0.83538 h 0.1016 q 0.474134,0 0.677334,-0.21449 0.214488,-0.22578 0.214488,-0.62089 0,-0.39511 -0.214488,-0.6096 -0.2032,-0.22578 -0.677334,-0.22578 h -0.1016 z" />
      <path
         inkscape:connector-curvature="0"
         id="path1013"
         style="font-style:normal;font-variant:normal;font-weight:normal;font-stretch:normal;font-size:11.28888893px;font-family:Phosphate;-inkscape-font-specification:Phosphate;stroke:#ff0000;stroke-width:0.01;stroke-miterlimit:4;stroke-dasharray:none;stroke-opacity:1"
         d="m 100.41107,125.06761 h 2.41582 v 1.88524 h -2.41582 z m 1.73849,1.07244 v -0.25964 h -1.06116 v 0.25964 z m -1.73849,-4.12044 h 2.41582 v 1.88524 h -2.41582 z m 1.73849,1.07244 v -0.25964 h -1.06116 v 0.25964 z" />
      <path
         inkscape:connector-curvature="0"
         id="path1015"
         style="font-style:normal;font-variant:normal;font-weight:normal;font-stretch:normal;font-size:11.28888893px;font-family:Phosphate;-inkscape-font-specification:Phosphate;stroke:#ff0000;stroke-width:0.01;stroke-miterlimit:4;stroke-dasharray:none;stroke-opacity:1"
         d="m 106.28623,119.24254 h 1.90782 l -3.23991,7.89093 h -1.90782 z m -2.21262,7.34907 h 0.28222 l 2.81093,-6.8072 h -0.28222 z" />
      <path
         inkscape:connector-curvature="0"
         id="path1017"
         style="font-style:normal;font-variant:normal;font-weight:normal;font-stretch:normal;font-size:11.28888893px;font-family:Phosphate;-inkscape-font-specification:Phosphate;stroke:#ff0000;stroke-width:0.01;stroke-miterlimit:4;stroke-dasharray:none;stroke-opacity:1"
         d="m 111.20307,119.24254 h 1.90782 l -3.23991,7.89093 h -1.90782 z m -2.21262,7.34907 h 0.28222 l 2.81093,-6.8072 h -0.28222 z" />
      <path
         inkscape:connector-curvature="0"
         id="path1019"
         style="font-style:normal;font-variant:normal;font-weight:normal;font-stretch:normal;font-size:11.28888893px;font-family:Phosphate;-inkscape-font-specification:Phosphate;stroke:#ff0000;stroke-width:0.01;stroke-miterlimit:4;stroke-dasharray:none;stroke-opacity:1"
         d="m 113.388,119.42316 h 2.50613 v 5.55413 h 2.07716 v 1.97556 H 113.388 Z m 3.95111,6.62658 v -0.27093 h -2.52871 v -5.45254 h -0.29351 v 5.72347 z" />
      <path
         inkscape:connector-curvature="0"
         id="path1021"
         style="font-style:normal;font-variant:normal;font-weight:normal;font-stretch:normal;font-size:11.28888893px;font-family:Phosphate;-inkscape-font-specification:Phosphate;stroke:#ff0000;stroke-width:0.01;stroke-miterlimit:4;stroke-dasharray:none;stroke-opacity:1"
         d="m 120.60618,119.42316 h 1.80623 l 2.85608,7.52969 h -2.37066 l -0.24836,-0.67733 h -2.28035 l -0.24836,0.67733 h -2.37067 z m 1.41111,5.19289 -0.508,-1.3208 -0.508,1.3208 z m -2.58515,1.43369 0.21449,-0.56445 h 3.72533 l 0.21449,0.56445 h 0.31609 l -2.17876,-5.72347 h -0.42897 l -2.17876,5.72347 z m 2.07715,-5.45253 1.76107,4.61715 h -3.52213 z" />
      <path
         inkscape:connector-curvature="0"
         id="path1023"
         style="font-style:normal;font-variant:normal;font-weight:normal;font-stretch:normal;font-size:11.28888893px;font-family:Phosphate;-inkscape-font-specification:Phosphate;stroke:#ff0000;stroke-width:0.01;stroke-miterlimit:4;stroke-dasharray:none;stroke-opacity:1"
         d="m 126.19366,125.97072 q 0.15804,0.0339 0.33866,0.0564 0.15805,0.0226 0.32738,0.0452 0.18062,0.0113 0.36124,0.0113 0.31609,0 0.6096,-0.0677 0.3048,-0.079 0.54187,-0.24835 0.23707,-0.16934 0.37253,-0.42898 0.14676,-0.27093 0.14676,-0.65476 0,-0.32737 -0.16933,-0.62089 -0.15805,-0.29351 -0.41769,-0.56444 -0.24836,-0.27093 -0.54187,-0.51929 -0.28222,-0.24835 -0.54187,-0.49671 -0.24835,-0.25964 -0.41768,-0.508 -0.15805,-0.25964 -0.15805,-0.53058 0,-0.4064 0.25965,-0.62089 0.25964,-0.22577 0.83537,-0.22577 0.0903,0 0.18063,0.0113 0.1016,0 0.19191,0.0113 0.0903,0.0113 0.18062,0.0113 v -0.29351 q -0.079,0 -0.16933,-0.0113 -0.079,-0.0113 -0.18063,-0.0113 -0.0903,-0.0113 -0.19191,-0.0113 -0.6096,0 -1.00471,0.28223 -0.39511,0.27093 -0.39511,0.85795 0,0.31609 0.15804,0.59831 0.16934,0.27094 0.41769,0.54187 0.25965,0.25964 0.54187,0.508 0.29351,0.24836 0.54187,0.508 0.25964,0.24836 0.41769,0.51929 0.16933,0.27093 0.16933,0.56444 0,0.54187 -0.37253,0.82409 -0.36125,0.28222 -1.00472,0.28222 -0.38382,0 -0.69991,-0.0564 -0.16933,-0.0226 -0.32737,-0.0564 z m -0.94827,-1.35467 q 0.24835,0.079 0.51929,0.12418 0.22578,0.0564 0.508,0.0903 0.29351,0.0339 0.58702,0.0339 0.51929,0 0.51929,-0.38383 0,-0.14675 -0.15805,-0.29351 -0.15804,-0.15804 -0.4064,-0.33866 -0.23706,-0.19192 -0.51928,-0.41769 -0.27094,-0.22578 -0.51929,-0.51929 -0.23707,-0.29351 -0.39511,-0.65476 -0.15805,-0.37253 -0.15805,-0.84666 0,-0.53058 0.19191,-0.93698 0.19191,-0.4064 0.53058,-0.67734 0.33867,-0.27093 0.79022,-0.4064 0.46285,-0.14675 0.98214,-0.14675 0.27093,0 0.54186,0.0339 0.27094,0.0226 0.48542,0.0452 0.24836,0.0339 0.48543,0.0677 v 2.11103 q -0.0903,-0.0113 -0.2032,-0.0226 -0.0903,-0.0113 -0.2032,-0.0226 -0.11289,-0.0113 -0.23707,-0.0113 -0.0677,0 -0.16933,0.0113 -0.1016,0 -0.19191,0.0226 -0.0903,0.0226 -0.15805,0.079 -0.0677,0.0564 -0.0677,0.15805 0,0.0903 0.14675,0.22577 0.15805,0.13547 0.37254,0.31609 0.22577,0.18062 0.48542,0.41769 0.27093,0.23707 0.48542,0.54187 0.22578,0.3048 0.37253,0.68862 0.15805,0.38382 0.15805,0.85796 0,0.49671 -0.15805,0.93697 -0.15804,0.42898 -0.49671,0.75636 -0.32737,0.31609 -0.84666,0.49671 -0.51929,0.19191 -1.23049,0.19191 -0.42898,0 -0.80151,-0.0452 -0.36125,-0.0339 -0.64347,-0.0903 -0.32738,-0.0564 -0.59831,-0.13546 z" />
      <path
         inkscape:connector-curvature="0"
         id="path1025"
         style="font-style:normal;font-variant:normal;font-weight:normal;font-stretch:normal;font-size:11.28888893px;font-family:Phosphate;-inkscape-font-specification:Phosphate;stroke:#ff0000;stroke-width:0.01;stroke-miterlimit:4;stroke-dasharray:none;stroke-opacity:1"
         d="m 130.51977,119.42316 h 4.43653 v 1.97556 h -2.032 v 0.83537 h 1.99813 v 1.87396 h -1.99813 v 0.86924 h 2.11102 v 1.97556 h -4.51555 z m 3.68018,6.62658 v -0.27093 h -2.25778 v -2.47227 h 2.14489 v -0.27093 h -2.14489 v -2.4384 h 2.25778 v -0.27094 h -2.55129 v 5.72347 z" />
      <path
         inkscape:connector-curvature="0"
         id="path1027"
         style="font-style:normal;font-variant:normal;font-weight:normal;font-stretch:normal;font-size:11.28888893px;font-family:Phosphate;-inkscape-font-specification:Phosphate;stroke:#ff0000;stroke-width:0.01;stroke-miterlimit:4;stroke-dasharray:none;stroke-opacity:1"
         d="m 138.07133,124.33383 q 0.44027,0 0.85795,-0.0903 l 1.07245,1.80622 h 0.34995 l -1.12888,-1.89653 q 0.6096,-0.21449 0.97084,-0.65476 0.36124,-0.45156 0.36124,-1.16276 0,-0.49671 -0.19191,-0.86924 -0.19191,-0.37253 -0.53057,-0.62089 -0.32738,-0.25964 -0.77894,-0.38382 -0.45155,-0.13547 -0.98213,-0.13547 h -1.2192 v 5.72347 h 0.29351 v -1.71591 z m -0.92569,-0.27094 v -3.46568 h 0.92569 q 1.02729,0 1.60302,0.45155 0.58702,0.45156 0.58702,1.28693 0,0.83538 -0.58702,1.28694 -0.57573,0.44026 -1.60302,0.44026 z m -1.4224,-4.63973 h 2.59644 q 0.72249,0 1.33209,0.19191 0.62089,0.19191 1.07245,0.56445 0.45155,0.37253 0.69991,0.92569 0.25964,0.54186 0.25964,1.25306 0,0.56445 -0.15804,0.95956 -0.15805,0.39511 -0.34996,0.65475 -0.22577,0.29351 -0.508,0.49671 l 1.41111,2.48356 h -2.82222 l -1.12889,-1.90782 v 1.90782 h -2.40453 z m 2.40453,3.70276 h 0.12418 q 0.42898,0 0.72249,-0.19191 0.3048,-0.19192 0.3048,-0.64347 0,-0.45156 -0.3048,-0.64347 -0.29351,-0.19191 -0.72249,-0.19191 h -0.12418 z" />
      <path
         inkscape:connector-curvature="0"
         id="path1029"
         style="font-style:normal;font-variant:normal;font-weight:normal;font-stretch:normal;font-size:11.28888893px;font-family:Phosphate;-inkscape-font-specification:Phosphate;stroke:#ff0000;stroke-width:0.01;stroke-miterlimit:4;stroke-dasharray:none;stroke-opacity:1"
         d="m 143.56884,123.19365 q 0,-0.54187 0.18062,-1.016 0.19191,-0.47413 0.53058,-0.82409 0.33867,-0.34995 0.82409,-0.55315 0.48542,-0.2032 1.08373,-0.2032 0.29351,0 0.51929,0.0451 0.23707,0.0339 0.39511,0.0903 0.19191,0.0564 0.32738,0.13547 l 0.15804,-0.27093 q -0.18062,-0.079 -0.38382,-0.14676 -0.19191,-0.0564 -0.44026,-0.1016 -0.24836,-0.0452 -0.57574,-0.0452 -0.57573,0 -1.10631,0.2032 -0.51929,0.2032 -0.92569,0.58703 -0.39511,0.37253 -0.64346,0.9144 -0.23707,0.53057 -0.23707,1.18533 0,0.66604 0.22578,1.19662 0.23706,0.53058 0.64346,0.9144 0.4064,0.37254 0.94827,0.57574 0.54187,0.2032 1.15147,0.2032 0.33866,0 0.6096,-0.0564 0.27093,-0.0564 0.46284,-0.12418 0.21449,-0.079 0.38382,-0.18062 l -0.15804,-0.27093 q -0.14676,0.1016 -0.33867,0.16933 -0.16933,0.0677 -0.4064,0.12418 -0.23706,0.0452 -0.55315,0.0452 -0.62089,0 -1.1176,-0.2032 -0.49671,-0.2032 -0.84667,-0.55315 -0.33867,-0.34996 -0.53058,-0.82409 -0.18062,-0.47413 -0.18062,-1.016 z m -1.4224,0 q 0,-0.90311 0.31609,-1.6256 0.31609,-0.73378 0.85795,-1.25307 0.54187,-0.51929 1.26436,-0.79022 0.72249,-0.28222 1.53529,-0.28222 0.64347,0 1.14018,0.12418 0.508,0.12417 0.86924,0.28222 0.41769,0.18062 0.72249,0.39511 l -1.18533,2.08844 q -0.18063,-0.13546 -0.39511,-0.25964 -0.19192,-0.0903 -0.46285,-0.16933 -0.25964,-0.0903 -0.59831,-0.0903 -0.34996,0 -0.64347,0.12417 -0.29351,0.12418 -0.51929,0.33867 -0.21448,0.21449 -0.33866,0.508 -0.12418,0.28222 -0.12418,0.6096 0,0.32738 0.12418,0.62089 0.13546,0.28222 0.36124,0.49671 0.22578,0.21449 0.53058,0.33867 0.3048,0.12417 0.66604,0.12417 0.36125,0 0.64347,-0.0903 0.28222,-0.0903 0.47413,-0.2032 0.22578,-0.12417 0.39512,-0.29351 l 1.18533,2.08845 q -0.3048,0.24835 -0.72249,0.44026 -0.36124,0.15805 -0.86924,0.29351 -0.508,0.13547 -1.16276,0.13547 -0.88053,0 -1.6256,-0.28222 -0.74507,-0.29351 -1.28693,-0.8128 -0.54187,-0.51929 -0.84667,-1.24178 -0.3048,-0.73378 -0.3048,-1.61431 z" />
      <path
         inkscape:connector-curvature="0"
         id="path1031"
         style="font-style:normal;font-variant:normal;font-weight:normal;font-stretch:normal;font-size:11.28888893px;font-family:Phosphate;-inkscape-font-specification:Phosphate;stroke:#ff0000;stroke-width:0.01;stroke-miterlimit:4;stroke-dasharray:none;stroke-opacity:1"
         d="m 151.47424,119.42316 h 1.80622 l 2.85609,7.52969 h -2.37067 l -0.24835,-0.67733 h -2.28036 l -0.24836,0.67733 h -2.37066 z m 1.41111,5.19289 -0.508,-1.3208 -0.508,1.3208 z m -2.58516,1.43369 0.21449,-0.56445 h 3.72533 l 0.21449,0.56445 h 0.31609 l -2.17875,-5.72347 h -0.42898 l -2.17876,5.72347 z m 2.07716,-5.45253 1.76106,4.61715 h -3.52213 z" />
      <path
         inkscape:connector-curvature="0"
         id="path1033"
         style="font-style:normal;font-variant:normal;font-weight:normal;font-stretch:normal;font-size:11.28888893px;font-family:Phosphate;-inkscape-font-specification:Phosphate;stroke:#ff0000;stroke-width:0.01;stroke-miterlimit:4;stroke-dasharray:none;stroke-opacity:1"
         d="m 157.31007,121.39872 h -1.38854 v -1.97556 h 5.26062 v 1.97556 h -1.38853 v 5.55413 h -2.48355 z m 1.38853,4.65102 v -5.45253 h 1.61431 v -0.27094 h -3.52213 v 0.27094 h 1.61431 v 5.45253 z" />
      <path
         inkscape:connector-curvature="0"
         id="path1035"
         style="font-style:normal;font-variant:normal;font-weight:normal;font-stretch:normal;font-size:11.28888893px;font-family:Phosphate;-inkscape-font-specification:Phosphate;stroke:#ff0000;stroke-width:0.01;stroke-miterlimit:4;stroke-dasharray:none;stroke-opacity:1"
         d="m 161.52982,125.06761 h 2.41582 v 1.88524 h -2.41582 z m 1.73849,1.07244 v -0.25964 h -1.06116 v 0.25964 z" />
      <path
         inkscape:connector-curvature="0"
         id="path1037"
         style="font-style:normal;font-variant:normal;font-weight:normal;font-stretch:normal;font-size:11.28888893px;font-family:Phosphate;-inkscape-font-specification:Phosphate;stroke:#ff0000;stroke-width:0.01;stroke-miterlimit:4;stroke-dasharray:none;stroke-opacity:1"
         d="m 170.532,122.29054 q 0,0.77893 -0.27093,1.33209 -0.27094,0.54186 -0.74507,0.88053 -0.46285,0.33867 -1.09502,0.49671 -0.62089,0.15805 -1.34338,0.15805 v 1.79493 h -2.40453 v -7.52969 h 2.40453 q 0.72249,0 1.34338,0.15805 0.63217,0.15804 1.09502,0.49671 0.47413,0.33866 0.74507,0.89182 0.27093,0.54187 0.27093,1.3208 z m -1.09502,0 q 0,-0.508 -0.18063,-0.88053 -0.16933,-0.37254 -0.48542,-0.6096 -0.31609,-0.23707 -0.75635,-0.34996 -0.42898,-0.12418 -0.93698,-0.12418 h -1.27565 v 5.72347 h 0.29352 v -1.79493 h 0.98213 q 0.508,0 0.93698,-0.11289 0.44026,-0.12418 0.75635,-0.36125 0.31609,-0.23706 0.48542,-0.6096 0.18063,-0.37253 0.18063,-0.88053 z m -0.31609,0 q 0,0.48542 -0.16934,0.8128 -0.16933,0.32738 -0.45155,0.51929 -0.28222,0.19191 -0.65476,0.28222 -0.36124,0.079 -0.76764,0.079 h -0.98213 v -3.38666 h 0.98213 q 0.4064,0 0.76764,0.0903 0.37254,0.079 0.65476,0.27093 0.28222,0.19191 0.45155,0.51929 0.16934,0.32738 0.16934,0.8128 z m -2.04329,0.83538 h 0.1016 q 0.47413,0 0.67733,-0.21449 0.21449,-0.22578 0.21449,-0.62089 0,-0.39511 -0.21449,-0.6096 -0.2032,-0.22578 -0.67733,-0.22578 h -0.1016 z" />
      <path
         inkscape:connector-curvature="0"
         id="path1039"
         style="font-style:normal;font-variant:normal;font-weight:normal;font-stretch:normal;font-size:11.28888893px;font-family:Phosphate;-inkscape-font-specification:Phosphate;stroke:#ff0000;stroke-width:0.01;stroke-miterlimit:4;stroke-dasharray:none;stroke-opacity:1"
         d="m 173.32441,119.42316 h 1.80622 l 2.85609,7.52969 h -2.37066 l -0.24836,-0.67733 h -2.28036 l -0.24835,0.67733 h -2.37067 z m 1.41111,5.19289 -0.508,-1.3208 -0.508,1.3208 z m -2.58515,1.43369 0.21448,-0.56445 h 3.72534 l 0.21449,0.56445 h 0.31609 l -2.17876,-5.72347 h -0.42898 l -2.17875,5.72347 z m 2.07715,-5.45253 1.76107,4.61715 h -3.52214 z" />
      <path
         inkscape:connector-curvature="0"
         id="path1041"
         style="font-style:normal;font-variant:normal;font-weight:normal;font-stretch:normal;font-size:11.28888893px;font-family:Phosphate;-inkscape-font-specification:Phosphate;stroke:#ff0000;stroke-width:0.01;stroke-miterlimit:4;stroke-dasharray:none;stroke-opacity:1"
         d="m 180.51491,124.33383 q 0.44026,0 0.85795,-0.0903 l 1.07245,1.80622 h 0.34995 l -1.12889,-1.89653 q 0.6096,-0.21449 0.97085,-0.65476 0.36124,-0.45156 0.36124,-1.16276 0,-0.49671 -0.19191,-0.86924 -0.19191,-0.37253 -0.53058,-0.62089 -0.32738,-0.25964 -0.77893,-0.38382 -0.45156,-0.13547 -0.98213,-0.13547 h -1.2192 v 5.72347 h 0.29351 v -1.71591 z m -0.92569,-0.27094 v -3.46568 h 0.92569 q 1.02728,0 1.60302,0.45155 0.58702,0.45156 0.58702,1.28693 0,0.83538 -0.58702,1.28694 -0.57574,0.44026 -1.60302,0.44026 z m -1.4224,-4.63973 h 2.59644 q 0.72249,0 1.33209,0.19191 0.62089,0.19191 1.07244,0.56445 0.45156,0.37253 0.69992,0.92569 0.25964,0.54186 0.25964,1.25306 0,0.56445 -0.15804,0.95956 -0.15805,0.39511 -0.34996,0.65475 -0.22578,0.29351 -0.508,0.49671 l 1.41111,2.48356 h -2.82222 l -1.12889,-1.90782 v 1.90782 h -2.40453 z m 2.40453,3.70276 h 0.12418 q 0.42898,0 0.72249,-0.19191 0.3048,-0.19192 0.3048,-0.64347 0,-0.45156 -0.3048,-0.64347 -0.29351,-0.19191 -0.72249,-0.19191 h -0.12418 z" />
      <path
         inkscape:connector-curvature="0"
         id="path1043"
         style="font-style:normal;font-variant:normal;font-weight:normal;font-stretch:normal;font-size:11.28888893px;font-family:Phosphate;-inkscape-font-specification:Phosphate;stroke:#ff0000;stroke-width:0.01;stroke-miterlimit:4;stroke-dasharray:none;stroke-opacity:1"
         d="m 185.75278,121.39872 h -1.38854 v -1.97556 h 5.26062 v 1.97556 h -1.38853 v 5.55413 h -2.48355 z m 1.38853,4.65102 v -5.45253 h 1.61431 v -0.27094 h -3.52213 v 0.27094 h 1.61431 v 5.45253 z" />
      <path
         inkscape:connector-curvature="0"
         id="path1045"
         style="font-style:normal;font-variant:normal;font-weight:normal;font-stretch:normal;font-size:11.28888893px;font-family:Phosphate;-inkscape-font-specification:Phosphate;stroke:#ff0000;stroke-width:0.01;stroke-miterlimit:4;stroke-dasharray:none;stroke-opacity:1"
         d="m 191.74488,123.71294 -2.3368,-4.28978 h 2.67547 l 0.86924,1.59173 0.85796,-1.59173 h 2.67546 l -2.3368,4.28978 v 3.23991 h -2.40453 z m 1.35467,2.3368 v -2.69805 l 1.64817,-3.02542 h -0.34995 l -1.44498,2.67547 -1.45627,-2.67547 h -0.33866 l 1.63689,3.02542 v 2.69805 z" />
    </g>
    <g
       inkscape:label="Cat"
       id="g4814"
       style="display:inline"
       sodipodi:insensitive="true">
      <path
         inkscape:connector-curvature="0"
         id="path4812"
         transform="scale(0.26458333)"
         d="m 477.44141,135.56641 c -2.00388,0.0988 -3.21094,0.74994 -3.21094,2.02929 0,1.08789 2.81703,3.26695 6.25976,4.84375 7.86422,3.60185 8.16294,8.31213 0.52149,8.22071 -6.63984,-0.0794 -11.99805,-3.9045 -11.99805,-8.56641 0,-2.28204 -3.61016,-3.82991 -12.22461,-5.24219 -18.75772,-3.07518 -29.16437,0.62788 -42.32226,15.06055 -5.90211,6.47392 -11.44716,11.77148 -12.32227,11.77148 -4.25688,0 -15.35738,11.46447 -16.55273,17.09571 -0.74166,3.49406 -2.75125,7.55776 -4.46485,9.02929 -1.83534,1.57605 -2.85256,5.33442 -2.47461,9.14649 0.52131,5.25755 -0.53181,7.18392 -5.61718,10.26953 -3.44273,2.08893 -8.18799,3.87025 -10.54493,3.95703 -6.35463,0.23399 -17.58107,13.3293 -18.95898,22.11524 -1.25009,7.97076 4.15008,22.05147 10.57227,27.5664 1.80523,1.55023 3.2832,4.15724 3.2832,5.79297 0,1.63573 0.9904,2.97461 2.20117,2.97461 5.87497,0 16.82471,37.11115 11.88281,40.27344 -0.86068,0.55075 -1.5664,4.36714 -1.5664,8.48242 0,6.16606 -1.00237,7.87849 -5.70508,9.72851 -3.13861,1.23473 -8.65201,3.69042 -12.25,5.45704 -3.59805,1.76662 -8.77488,3.34584 -11.50586,3.50976 -2.73098,0.16392 -7.20464,2.05634 -9.94141,4.20508 -2.73683,2.14873 -6.43332,3.90625 -8.21289,3.90625 -1.77956,0 -5.35137,2.05844 -7.93945,4.57422 -3.27654,3.185 -7.30222,4.53621 -13.25195,4.45117 -6.58105,-0.094 -10.14837,1.3357 -15.52539,6.2207 -3.83984,3.48842 -8.03142,6.34375 -9.31446,6.34375 -1.28292,0 -2.33203,0.84643 -2.33203,1.88086 0,1.03444 4.84044,2.54522 10.75781,3.35742 13.81536,1.89627 22.625,6.60274 22.625,12.0879 0,2.3495 1.40565,4.26171 3.13086,4.26171 1.72137,0 2.89429,0.90419 2.60743,2.00782 -0.28692,1.10362 1.26752,3.38595 3.45312,5.07226 3.90744,3.01482 3.90744,3.25744 0,14.53906 -2.73476,7.89582 -5.92664,12.70726 -10.23438,15.42969 -9.05402,5.72206 -10.81179,5.06686 -15.43359,-5.74414 -2.28431,-5.34338 -4.91073,-9.7432 -5.83594,-9.77344 -0.92527,-0.0319 -3.98214,-3.917 -6.79492,-8.63476 -4.73139,-7.93576 -10.53515,-11.47093 -10.53515,-6.41797 0,1.18741 0.96268,2.1582 2.13867,2.1582 3.22661,0 6.55451,10.46435 7.51562,23.625 0.47198,6.46284 2.18156,13.26223 3.79883,15.11133 3.13139,3.58023 18.74518,4.45208 28.27734,1.57813 23.37987,-7.04905 42.09762,-13.39536 49.60938,-16.81836 4.90794,-2.23646 13.05995,-4.06641 18.11523,-4.06641 7.67048,0 9.87597,-0.9932 13.32422,-6.00391 2.92173,-4.24565 3.56731,-7.04808 2.20313,-9.57031 -1.26059,-2.33038 -1.12131,-4.08497 0.40429,-5.06055 1.64928,-1.05479 1.50876,-2.02214 -0.47851,-3.29296 -2.24092,-1.43286 -2.28594,-2.34561 -0.22266,-4.48047 3.59838,-3.72329 3.23546,-9.70019 -1.06054,-17.46289 -5.01638,-9.06438 -19.55132,-23.09455 -23.99414,-23.16016 -2.00829,-0.0297 -3.65235,-0.90437 -3.65235,-1.94336 0,-2.32651 10.34443,-4.58789 20.98633,-4.58789 6.04267,0 8.25279,-1.00687 9.23437,-4.20703 0.70988,-2.31409 3.07228,-4.79263 5.25,-5.50781 4.23542,-1.39092 7.3404,-8.31747 5.27735,-11.77149 -0.68814,-1.15205 -4.26964,-2.69627 -7.95899,-3.43164 -5.13755,-1.02399 -7.56279,-3.23008 -10.35937,-9.42578 -2.00825,-4.44932 -3.65039,-9.11552 -3.65039,-10.36914 0,-1.25362 -2.00247,-2.82233 -4.44922,-3.48438 -3.59816,-0.9736 -4.13653,-2.15534 -2.81641,-6.1875 2.79603,-8.53971 3.55857,-34.22458 1.19532,-40.25585 -2.00746,-5.12319 -3.10514,-10.7926 -4.875,-25.17969 -0.42254,-3.43464 0.85595,-4.45798 6.25,-4.9961 5.09117,-0.50791 6.78125,-1.71835 6.78125,-4.85742 0,-3.74517 2.20084,-5.18387 6.78125,-4.43555 0.86067,0.14062 1.56445,-2.22818 1.56445,-5.26367 0,-5.22522 10.89449,-18.22851 15.27148,-18.22851 1.00158,0 4.54789,-2.01111 7.88086,-4.4668 7.53109,-5.54874 7.91967,-11.85381 0.84375,-13.69141 -6.06376,-1.57472 -6.8243,-4.77273 -1.54687,-6.50585 2.01849,-0.66291 4.60098,-3.39474 5.73828,-6.07032 1.13737,-2.67558 3.80831,-5.20263 5.93555,-5.61718 3.42228,-0.66695 3.70607,0.23944 2.45898,7.87695 -1.35205,8.28052 -1.15496,8.69071 4.85547,10.05664 11.52767,2.61979 11.37489,5.52409 -1.14453,21.72461 -6.39425,8.27438 -12.58011,15.6738 -13.7461,16.44531 -1.16606,0.77152 -2.31424,6.60208 -2.55273,12.95508 -0.23822,6.35299 -0.64332,11.55078 -0.89844,11.55078 -1.74005,0 -1.94204,9.92148 -0.33008,16.19141 1.06844,4.15596 2.94894,11.52864 4.17774,16.38281 1.70475,6.73423 3.84569,9.62129 9.0332,12.18164 11.0654,5.46142 26.30589,8.46478 30.67578,6.04492 4.3056,-2.38428 6.98364,-0.0946 9.39063,8.0293 0.79154,2.6717 2.08189,4.8728 2.86523,4.88867 0.78335,0.0162 3.46386,0.59466 5.95899,1.28711 4.04719,1.1232 4.692,0.19169 5.97265,-8.64453 1.33497,-9.21108 1.79801,-9.81191 6.60157,-8.56446 4.37446,1.13605 7.08485,-0.76539 17.70703,-12.42382 11.65013,-12.78705 12.46626,-14.34203 11.49023,-21.8711 -0.6254,-4.82459 -0.17938,-8.10547 1.09961,-8.10547 1.28757,0 1.63182,-2.66595 0.86133,-6.65234 -0.70734,-3.65946 -0.24865,-8.65957 1.01953,-11.11133 1.84441,-3.56598 1.62496,-4.85364 -1.10352,-6.43359 -1.87612,-1.08628 -2.84128,-2.92926 -2.14453,-4.0957 0.69676,-1.16646 0.14242,-3.5243 -1.23242,-5.23829 -1.37454,-1.71398 -1.9552,-4.5846 -1.28906,-6.38086 1.66295,-4.48389 7.77709,-4.12009 8.95312,0.53321 0.52827,2.09001 5.13408,5.58791 10.23633,7.77148 5.10229,2.18358 9.27735,4.9477 9.27735,6.14453 0,1.19685 -1.31557,1.65421 -2.92383,1.01563 -3.37214,-1.33897 -6.14703,6.45791 -3.01172,8.46289 1.11065,0.71024 2.91141,3.71939 4.00195,6.6875 1.09066,2.9681 3.61492,5.85616 5.60938,6.41797 1.99449,0.56182 5.22988,3.26849 7.18945,6.01367 3.35932,4.70629 3.35932,4.9753 0,4.70703 -2.56437,-0.20483 -3.6556,1.52966 -3.89258,6.19141 -0.18138,3.56226 -0.52607,7.4493 -0.76758,8.63672 -0.23886,1.18741 -0.32904,2.88678 -0.19336,3.77734 0.13588,0.89057 -0.69038,1.61914 -1.83789,1.61914 -1.14761,0 -2.08789,1.56058 -2.08789,3.46875 0,2.19685 1.14907,3.01542 3.13086,2.22852 1.72146,-0.6835 3.12891,-0.38116 3.12891,0.67187 0,1.05304 0.62423,3.59638 1.38672,5.65234 1.17702,3.17376 0.46759,3.53804 -4.69532,2.41993 -3.34469,-0.72429 -4.9071,-0.78812 -3.47265,-0.14258 1.43452,0.64554 2.60937,2.55025 2.60937,4.23242 0,1.68218 0.96084,3.05859 2.13672,3.05859 1.176,0 3.03228,2.42794 4.12305,5.39649 1.09073,2.96854 2.74662,5.39844 3.68164,5.39844 3.84915,0 18.46773,16.38018 17.71484,19.84961 -0.53533,2.46714 1.7959,5.07008 7.16211,8 4.53683,2.47715 6.41436,4.38499 4.36914,4.43945 -2.13626,0.0568 -3.14858,1.27524 -2.5039,3.01367 0.6421,1.73136 3.06181,2.52624 5.94922,1.95508 6.68235,-1.32175 8.93285,3.29162 2.42968,4.98047 -2.85071,0.74032 -6.19273,0.69992 -7.42773,-0.0899 -2.02507,-1.29504 -22.15353,12.08659 -25.4043,16.88868 -0.73239,1.08187 -2.26856,1.36724 -3.41406,0.63476 -1.14539,-0.73247 -2.55557,0.53761 -3.13281,2.82227 -0.75674,2.99407 -2.27867,3.81987 -5.45313,2.96093 -3.11285,-0.84231 -4.40429,-0.18687 -4.40429,2.23243 -10e-6,2.14648 1.1613,2.9606 3.11328,2.18554 1.77694,-0.70551 3.66141,0.24969 4.39453,2.22657 1.29142,3.48222 7.09765,4.92985 7.09765,1.76953 0,-0.93141 3.05162,-3.52347 6.78125,-5.75977 3.72968,-2.23632 9.02112,-6.33218 11.75977,-9.10156 2.73853,-2.76939 5.97854,-5.03516 7.19922,-5.03516 1.41029,0 1.30756,0.94585 -0.2832,2.5918 -1.37711,1.4249 -2.50391,4.33921 -2.50391,6.47656 0,2.13735 -0.99559,3.88672 -2.21094,3.88672 -1.21701,0 -1.75384,0.76189 -1.19726,1.69336 0.55634,0.93148 -1.7361,4.94863 -5.09375,8.92773 -3.35759,3.9791 -6.10352,8.02882 -6.10352,9 0,0.97123 -4.29993,6.15141 -9.55469,11.51172 -6.07786,6.19979 -8.99236,10.75448 -8.00976,12.51563 0.84945,1.52269 -0.71923,0.74864 -3.48633,-1.71875 -5.00878,-4.46619 -14.42188,-6.55419 -14.42188,-3.19922 0,0.96877 2.11326,3.26937 4.69532,5.11133 l 4.69531,3.34961 -4.70703,-1.18164 c -4.9968,-1.25462 -10.94141,2.43256 -10.94141,6.78711 0,1.43784 1.17302,2.71789 2.60742,2.84375 1.43456,0.12585 7.77229,0.85726 14.08399,1.625 8.21896,0.99972 12.54525,0.55943 15.24414,-1.54883 3.48279,-2.72039 3.52382,-3.42885 0.53515,-9.35938 -3.99212,-7.92215 -4.05803,-9.65625 -0.36914,-9.65625 1.58941,0 4.56699,-2.6721 6.61719,-5.9375 2.05013,-3.26543 5.96808,-8.4152 8.70703,-11.44336 4.69436,-5.19018 7.43243,-9.48717 13.33594,-20.93945 1.3773,-2.67169 3.42315,-4.85938 4.54687,-4.85938 1.12377,0 3.16686,-1.59064 4.54102,-3.53515 1.37412,-1.94452 3.5824,-3.15754 4.90625,-2.69727 1.38951,0.48307 -1.46854,5.85645 -6.75977,12.71094 -5.04136,6.5308 -8.77323,12.53525 -8.29296,13.34375 0.48022,0.80852 -0.0798,2.08037 -1.2461,2.82617 -2.71506,1.73632 -2.77965,9.73633 -0.0781,9.73633 1.12422,0 4.05805,-4.12924 6.51758,-9.17578 5.6615,-11.61626 5.89181,-11.84563 8.13281,-8.09375 1.5326,2.56582 2.13076,2.3638 3.39648,-1.14258 1.992,-5.51852 13.47784,-20.44922 15.73047,-20.44922 0.95554,0 1.73633,1.45715 1.73633,3.23828 0,1.78113 -0.93836,3.23828 -2.08594,3.23828 -1.14758,0 -2.08594,1.01295 -2.08594,2.25 0,1.23708 -1.95259,4.39555 -4.33789,7.01758 -3.27647,3.60186 -4.06177,6.55544 -3.21289,12.08594 0.61799,4.02604 0.10652,9.37023 -1.13672,11.875 -2.25717,4.54741 -2.25439,4.54786 1.75391,0.23633 2.20785,-2.37487 4.70698,-5.7755 5.55469,-7.55664 5.00697,-10.51945 7.2119,-13.23974 8.46875,-10.44922 0.71648,1.59056 0.96072,0.90546 0.54297,-1.52344 -0.88834,-5.16514 8.00034,-10.97444 10.46875,-6.84179 0.77775,1.30208 0.22331,2.7785 -1.23438,3.28124 -2.69646,0.93003 -15.5042,27.26691 -15.73437,32.35547 -0.0694,1.53404 -1.32379,3.55443 -2.78711,4.49024 -1.46582,0.93577 -2.09602,3.22415 -1.40625,5.08398 0.77937,2.10157 -0.55436,4.69195 -3.52344,6.84375 l -4.77734,3.46094 h 6.82617 c 3.75511,0 9.75195,1.56607 13.32617,3.47852 4.94366,2.64521 9.45024,3.13195 18.83594,2.0332 6.84279,-0.80103 13.42789,-0.55058 14.78515,0.56445 1.34586,1.10574 9.24168,2.4893 17.54493,3.07422 8.30316,0.58496 16.46569,2.24135 18.14062,3.67969 4.61881,3.96631 12.80713,2.06231 12.00391,-2.79102 -0.44534,-2.69091 0.17028,-3.46288 1.88672,-2.36523 1.79788,1.14965 2.00572,0.73679 0.70507,-1.40235 -1.01393,-1.66771 -2.09834,-9.07185 -2.41015,-16.45312 -0.54074,-12.81574 -0.23252,-13.76337 6.80859,-21.04883 4.05528,-4.19607 7.90919,-7.62891 8.56641,-7.62891 0.6573,0 3.0868,2.48661 5.39844,5.52735 2.31159,3.0407 5.46915,5.02617 7.01562,4.41211 1.54643,-0.61402 3.29004,-0.31356 3.875,0.66601 0.58507,0.97958 4.67998,2.37812 9.09961,3.10938 4.41963,0.73126 10.07314,3.15883 12.56445,5.39453 4.73503,4.24917 6.01917,8.95508 2.44336,8.95508 -1.14758,0 -2.08594,0.97274 -2.08594,2.16015 0,3.16113 3.41423,2.63426 7.00391,-1.08007 3.53613,-3.65889 6.43049,-4.35791 4.47266,-1.08008 -0.70931,1.18745 0.14339,2.16015 1.89648,2.16015 3.72484,0 2.13149,6.54056 -2.26172,9.28321 -1.52099,0.94957 -2.76562,3.49775 -2.76562,5.66406 0,2.16624 -2.41728,8.41249 -5.3711,13.88086 -3.59644,6.6582 -4.89806,11.47936 -3.94336,14.5918 0.98034,3.19604 1.91397,3.82673 2.99219,2.02148 1.16924,-1.95745 1.87481,-1.80107 2.76953,0.61133 0.65987,1.7794 3.84082,4.53849 7.07032,6.13281 4.20003,2.07353 6.04727,4.73781 6.48437,9.35938 0.33611,3.55343 1.03247,7.73732 1.54883,9.29687 1.15574,3.49077 5.14258,1.27418 5.14258,-2.85937 0,-1.654 4.15815,-5.96858 9.24218,-9.58789 9.56406,-6.80871 13.70899,-8.14562 13.70899,-4.42188 0,3.89106 8.24922,2.26025 10.91601,-2.1582 1.43335,-2.37483 3.75527,-4.31836 5.16016,-4.31836 1.40504,0 3.58856,-1.99762 4.85156,-4.43945 3.17851,-6.14529 9.82142,-8.21006 17.47266,-5.42969 9.82541,3.57048 11.09014,4.88762 12.57617,13.08398 1.47455,8.1329 7.44531,10.74847 7.44531,3.26172 0,-2.37483 -0.93832,-4.31836 -2.08593,-4.31836 -1.14754,0 -2.08594,-2.34588 -2.08594,-5.21484 0,-3.15413 -3.39405,-8.91668 -8.58399,-14.57422 -4.72074,-5.14613 -10.13002,-11.90498 -12.02148,-15.01953 -7.49431,-12.34073 -39.16599,-44.66228 -48.12109,-49.10938 -10.08575,-5.00857 -14.73438,-5.78526 -14.73438,-2.46289 0,2.96149 -10.59783,1.96426 -15.5918,-1.46679 -5.1459,-3.53513 -21.88933,-3.57206 -26.3457,-0.0586 -3.74041,2.94908 -45.41676,3.31733 -49.91406,0.44141 -1.466,-0.93752 -6.23598,-2.03647 -10.60156,-2.44336 -5.85211,-0.54541 -10.10814,-2.94138 -16.19922,-9.11914 -8.40824,-8.52776 -17.13135,-10.93164 -22.70899,-6.25781 -1.89139,1.58485 -2.60937,1.18119 -2.60937,-1.47071 0,-4.79727 -4.98262,-9.82063 -9.76172,-9.84179 -3.53359,-0.0157 -9.01758,-8.55569 -9.01758,-14.04297 0,-1.32179 -6.54524,-8.6568 -14.54687,-16.30079 -8.0016,-7.64398 -14.57902,-15.54092 -14.60547,-17.54882 -0.0315,-2.0079 -0.99692,-4.25247 -2.14453,-4.98633 -1.14762,-0.73387 -2.08594,-9.88024 -2.08594,-20.32617 0,-18.22347 -0.28326,-19.3767 -6.99805,-28.47852 -3.84884,-5.21728 -7.71428,-11.82456 -8.58984,-14.68164 -0.87561,-2.85708 -3.59505,-7.22853 -6.04297,-9.71484 -2.44785,-2.48631 -4.7139,-6.46305 -5.03516,-8.83789 -5.08497,-37.60202 -5.06548,-36.11558 -0.5664,-42.41211 5.6378,-7.8903 5.41303,-15.10616 -0.65625,-21.00586 -6.08625,-5.91623 -20.40805,-5.8685 -28.76953,0.0957 -7.78768,5.55497 -14.65941,4.93987 -28.17969,-2.52539 -7.77467,-4.29277 -16.04265,-6.74462 -20.45117,-6.52734 z m 67.46875,15.91992 c 0.97074,0.11113 2.08516,0.81876 3.3457,2.12305 2.67617,2.76907 2.48104,3.56734 -1.58203,6.50195 l -4.63086,3.3457 4.69531,0.11328 c 2.64594,0.0638 4.69336,1.46928 4.69336,3.22266 v 0.002 c 0,4.7494 -3.04149,5.671 -7.66211,2.32227 -3.08715,-2.23766 -3.92482,-4.74317 -3.22851,-9.65235 0.79067,-5.57408 2.23349,-8.22299 4.36914,-7.97851 z m -65.71289,5.96094 c 2.30225,0 4.78379,1.35833 8.12304,4.07617 3.83687,3.12282 8.46298,4.31836 16.71875,4.31836 10.9251,0 11.5331,0.3023 14.15821,7.01758 1.50856,3.8591 3.73644,7.72917 4.94921,8.60156 1.26751,0.91182 0.43016,1.61424 -1.96875,1.65234 -2.29515,0.0364 -5.58138,1.0625 -7.30273,2.28125 -2.78203,1.96972 -2.78203,2.14831 0,1.60156 1.72135,-0.33831 3.43518,0.32493 3.80859,1.47461 0.70405,2.17018 -2.33738,4.06092 -3.93945,2.44922 -0.50203,-0.50509 -4.19826,-1.20059 -8.21484,-1.54687 -4.01654,-0.34625 -8.71225,-1.80672 -10.4336,-3.2461 -1.72134,-1.43937 -8.52839,-5.24842 -15.12695,-8.46484 -12.88286,-6.27961 -14.3755,-9.35998 -7.82422,-16.13867 2.62664,-2.71784 4.75048,-4.07617 7.05274,-4.07617 z m 44.94726,0.62109 c 2.50976,0.0655 6.75261,1.18043 8.20508,2.50976 0.40641,0.37199 0.40641,1.4744 0,2.45118 -0.89518,2.15135 -10.12891,-1.78888 -10.12891,-4.32227 0,-0.48233 0.78303,-0.66844 1.92383,-0.63867 z m -1.59765,9.96289 c 0.45952,-0.0108 0.98431,0.0795 1.5625,0.28516 h 0.002 c 1.26259,0.44912 1.42372,1.97284 0.39062,3.69336 -1.30409,2.17181 -2.14972,2.27463 -3.27148,0.39648 -1.43775,-2.40703 -0.67485,-4.32801 1.31641,-4.375 z m -15.05469,12.92383 c -1.21535,0 -1.62919,0.97079 -0.91992,2.1582 0.7093,1.18742 1.70267,2.1582 2.20898,2.1582 0.50612,0 0.91992,-0.97078 0.91992,-2.1582 0,-1.18741 -0.99368,-2.1582 -2.20898,-2.1582 z m -149.16407,46.27148 c 0.73088,0.083 0.98356,0.64288 0.66602,1.62891 -1.03966,3.22726 -5.78125,5.00371 -5.78125,2.16601 0,-1.15932 1.48739,-2.69836 3.30469,-3.41992 0.76191,-0.30257 1.37202,-0.42482 1.81054,-0.375 z m 2.21094,12.01953 c 0.56051,0 0.99061,0.72858 0.95508,1.61914 -0.0914,2.25761 -10.36719,9.78827 -10.36719,7.59766 0,-1.81427 7.55909,-9.2168 9.41211,-9.2168 z M 486.75,243.56445 c 2.32112,0 2.77233,6.43369 0.82031,11.69727 -1.96282,5.29247 -5.64145,4.03498 -4.22265,-1.44336 0.69199,-2.67168 1.26821,-6.07237 1.28711,-7.55664 0.0157,-1.48428 0.96761,-2.69727 2.11523,-2.69727 z m -31.81445,6.50586 c 1.13443,0.12959 2.59076,1.84778 3.32031,4.73438 0.66368,2.61984 0.94481,5.03239 0.62695,5.36133 -1.15665,1.19674 -5.51758,-4.58718 -5.51758,-7.31836 0,-2.01809 0.68798,-2.87814 1.57032,-2.77735 z m 93.49023,4.28907 c -1.78915,0 -3.2539,0.97078 -3.2539,2.1582 0,1.18741 0.88495,2.1582 1.96484,2.1582 1.07981,0 2.54272,-0.97079 3.25195,-2.1582 0.70923,-1.18742 -0.17377,-2.1582 -1.96289,-2.1582 z m -163.10547,11.62109 c -0.2494,-0.0114 -0.52169,0.0685 -0.80859,0.25195 -1.14758,0.73387 -2.08789,2.24789 -2.08789,3.36524 0,1.11734 0.94031,2.0332 2.08789,2.0332 1.14761,0 2.08594,-1.51599 2.08594,-3.36719 0,-1.38843 -0.52913,-2.24892 -1.27735,-2.2832 z m -0.48828,10.4082 c -2.12721,-0.10017 -2.40428,1.95305 -2.39648,7.65625 h -0.002 l 0.0117,8.0957 5.02539,-6.47656 c 4.46525,-5.75377 4.63894,-6.64167 1.55469,-7.94531 -1.8777,-0.79366 -3.22645,-1.28455 -4.19336,-1.33008 z m 12.88281,10.35352 c -2.62019,0 -9.03125,7.13529 -9.03125,10.05078 0,1.59709 0.99372,2.9043 2.20899,2.9043 1.21527,0 1.69697,-0.86164 1.06836,-1.91407 -0.62858,-1.05241 0.72355,-2.41957 3.00586,-3.03711 3.73818,-1.01148 6.13881,-8.0039 2.74804,-8.0039 z m 114.32032,0 c -1.14758,0 -2.66777,0.97274 -3.37696,2.16015 -0.70926,1.18742 -0.35074,2.15821 0.79688,2.15821 1.14758,0 2.66772,-0.97079 3.37695,-2.15821 0.70927,-1.18741 0.35074,-2.16015 -0.79687,-2.16015 z m -8.46875,4.31836 c -1.07985,0 -2.54472,0.97078 -3.25391,2.1582 -0.7093,1.18742 0.17378,2.16016 1.96289,2.16016 1.78915,0 3.25391,-0.97274 3.25391,-2.16016 0,-1.18742 -0.88308,-2.1582 -1.96289,-2.1582 z m 0.39843,6.50976 c -3.12049,0.0283 -3.19805,0.33843 -0.52343,2.12696 3.938,2.63306 4.17382,2.63306 4.17382,0 0,-1.18742 -1.6421,-2.1451 -3.65039,-2.12696 z m 7.94727,6.44336 c -1.21527,0 -2.21094,0.97274 -2.21094,2.16016 0,1.18742 0.41366,2.1582 0.91992,2.1582 0.50608,0 1.50171,-0.97078 2.21094,-2.1582 0.70927,-1.18742 0.29539,-2.16016 -0.91992,-2.16016 z m 44.33594,12.44727 c -0.91215,-0.0256 -1.92589,0.0281 -3.03125,0.17578 -0.73951,0.0988 -4.50287,0.54027 -8.36328,0.98047 -8.50345,0.9696 -15.98735,4.90623 -20.91211,11.00195 -4.26255,5.2762 -4.64275,8.60564 -1.64649,14.39844 3.03678,5.87124 4.43622,5.24235 10.32813,-4.63672 3.54988,-5.95201 6.31175,-8.39218 8.75,-7.73242 1.95946,0.53018 5.09379,-0.78655 6.96484,-2.92578 1.87102,-2.13924 5.68032,-4.48195 8.46484,-5.20508 7.22427,-1.87612 5.83037,-5.87737 -0.55468,-6.05664 z m 9.5039,2.81054 c -1.23035,0.0247 -1.80078,1.04937 -1.80078,3.09375 0,3.65596 0.36583,3.78704 5.22071,1.85938 2.77235,-1.10078 2.91341,-1.75087 0.69335,-3.20703 -1.79938,-1.18021 -3.15633,-1.76531 -4.11328,-1.7461 z m 2.05078,10.6504 c -7.55761,0 -9.59875,1.12644 -15.94726,8.80078 -5.44294,6.57958 -7.7252,8.07873 -9.03711,5.9375 -1.28716,-2.10056 -1.76443,-1.70815 -1.78711,1.47461 -0.0175,2.38696 -2.37908,6.96068 -5.24805,10.16211 -2.86896,3.20145 -5.21679,6.48344 -5.21679,7.29492 0,0.81148 -1.6421,2.76633 -3.65039,4.34375 -3.43038,2.69466 -3.43503,2.87294 -0.0547,2.9375 1.97877,0.0378 5.0216,-2.77776 6.75976,-6.25586 1.73832,-3.47811 5.00635,-6.93056 7.26368,-7.67188 2.25736,-0.74132 6.43204,-4.21019 9.27734,-7.70898 2.84523,-3.49879 6.61061,-6.36133 8.36719,-6.36133 5.35453,0 17.9414,-7.09635 17.9414,-10.11523 0,-1.8899 -2.89712,-2.83789 -8.66797,-2.83789 z m 32.66211,12.95312 c 1.85673,0 2.79712,0.97079 2.08789,2.1582 -0.7093,1.18742 -1.64939,2.16016 -2.08789,2.16016 -0.43831,0 -1.37667,-0.97274 -2.08593,-2.16016 -0.70919,-1.18741 0.22909,-2.1582 2.08593,-2.1582 z m -172.63281,0.33203 c -2.25688,-0.0636 -3.67773,0.5484 -3.67773,1.99219 0,5.01 8.80523,16.26178 14.91601,19.06055 3.34333,1.53127 6.51985,5.04016 7.23633,7.99414 0.70235,2.89553 3.19619,6.65663 5.54297,8.35742 3.38173,2.45083 3.75801,3.72675 1.8125,6.15234 -1.35005,1.68325 -1.83927,4.72271 -1.08594,6.75391 0.83823,2.26031 1.90083,2.80697 2.73633,1.4082 0.7508,-1.25699 3.20196,-2.69658 5.44727,-3.19922 10.76386,-2.40952 12.97892,-3.91923 11.91796,-8.11718 -0.63503,-2.51271 0.35974,-5.31215 2.45118,-6.89454 2.84311,-2.15108 3.10909,-3.78553 1.3789,-8.49414 -1.37015,-3.72886 -3.2199,-5.40445 -5.1289,-4.64648 -1.64198,0.65197 -3.58007,0.18915 -4.30664,-1.02734 -0.72662,-1.21649 -2.69813,-1.66498 -4.38282,-0.9961 -4.81198,1.91062 -3.59198,-2.42728 2.4375,-8.66601 4.03873,-4.17889 4.63173,-5.69141 2.23438,-5.69141 -3.64048,0 -9.82227,5.6165 -9.82227,8.92383 0,1.17639 -3.98993,-0.77954 -8.86718,-4.34571 -6.8587,-5.01493 -15.8747,-8.42456 -20.83985,-8.56445 z m -29.31445,2.16016 c -0.40847,0.0294 -1.03438,0.49443 -1.9043,1.39453 -1.37707,1.4249 -4.1941,2.58984 -6.25976,2.58984 -3.8736,0 -4.84933,3.54501 -2.16016,7.85352 0.8431,1.35081 4.92414,3.916 9.06836,5.70117 9.08829,3.91485 16.46094,10.14586 16.46094,13.91211 0,1.51722 0.93832,2.75976 2.08593,2.75976 1.14754,10e-6 1.97591,0.72858 1.83985,1.61915 -0.6796,4.45322 0.55417,7.01562 3.37695,7.01562 1.72135,0 3.12891,0.97079 3.12891,2.1582 0,1.18742 -0.99364,2.16016 -2.20899,2.16016 -1.21617,0 -1.74244,0.78393 -1.16992,1.74219 1.58351,2.65115 16.07604,1.45218 17.82422,-1.47461 0.84525,-1.41498 3.10492,-1.95043 5.02148,-1.18945 5.28129,2.09695 4.17178,-2.0583 -1.20898,-4.52735 -2.58202,-1.18484 -4.56342,-3.84295 -4.4043,-5.9082 0.18123,-2.348 -1.18798,-3.75586 -3.65234,-3.75586 -2.16767,0 -3.94141,-1.40028 -3.94141,-3.11133 0,-1.71105 -1.08336,-3.80313 -2.4082,-4.65039 -1.49265,-0.95443 -1.84235,-0.59312 -0.91992,0.95117 0.81879,1.37089 0.39279,2.49219 -0.94532,2.49219 -1.49862,0 -1.85567,-1.44998 -0.92968,-3.77734 3.75836,-9.44628 3.56736,-11.68056 -1.30078,-15.21094 -2.73468,-1.98325 -6.61476,-3.31795 -8.62305,-2.9668 -2.00825,0.35116 -3.65234,-0.3942 -3.65234,-1.65625 0,-1.26206 1.09668,-2.29492 2.43554,-2.29492 1.33909,0 1.86114,-0.59122 1.16211,-1.31445 -0.69898,-0.72325 -4.17499,0.82421 -7.72461,3.43945 -4.06564,2.99554 -7.77568,4.18802 -10.02929,3.22266 -2.45069,-1.04977 -2.7574,-1.85046 -0.97071,-2.54102 1.43452,-0.55442 2.60938,-2.09202 2.60938,-3.41797 0,-0.83757 -0.19114,-1.2442 -0.59961,-1.21484 z m -57.375,1.82617 c 0.65787,0 4.21297,2.9143 7.89844,6.47656 7.4147,7.1668 11.55229,7.91182 17.61132,3.16992 2.2276,-1.74337 4.84483,-3.16992 5.81641,-3.16992 3.22396,0 -0.18703,17.2883 -4.54102,23.01563 -2.35552,3.09845 -4.28125,6.91337 -4.28125,8.47851 0,4.81047 -4.68014,13.77601 -6.5625,12.57227 -0.97773,-0.62529 -3.86543,0.37663 -6.41796,2.22656 -7.01163,5.08158 -9.04481,4.17618 -12.09375,-5.38281 -1.53424,-4.81009 -4.26697,-10.58566 -6.07227,-12.83399 -1.80536,-2.24832 -5.57328,-7.15119 -8.37305,-10.89453 -2.7997,-3.74333 -7.49341,-7.78901 -10.43164,-8.99218 -5.05663,-2.07067 -5.11994,-2.28217 -1.16992,-3.95704 2.29514,-0.97319 6.28709,-1.83834 8.86914,-1.92187 2.58205,-0.0835 4.69336,-0.92807 4.69336,-1.87695 0,-1.50384 11.77857,-6.91016 15.05469,-6.91016 z m 98.59765,3.86719 c 0.14222,0.041 0.30157,0.37481 0.4668,1.03125 0.52887,2.10059 0.49323,5.01489 -0.0781,6.47656 -0.57147,1.46167 -1.00252,-0.25611 -0.96094,-3.81836 0.0292,-2.44905 0.25939,-3.77959 0.57226,-3.68945 z m 81.17579,1.20507 c -0.098,0.0195 -0.18037,0.0628 -0.2461,0.13086 -0.52599,0.5443 0.31108,2.41287 1.86133,4.15235 3.68606,4.13603 5.25811,2.54328 1.77539,-1.79883 -1.29026,-1.60871 -2.70483,-2.62119 -3.39062,-2.48438 z m -29.35352,5.9668 c -1.03766,0 -2.98392,0.63729 -5.85547,1.91406 -4.02297,1.78889 -4.00906,1.86155 0.39844,2.00782 2.51433,0.0835 5.15206,-0.8204 5.86133,-2.00782 0.76261,-1.27677 0.63336,-1.91406 -0.4043,-1.91406 z m -41.35742,2.86328 c 0.91615,0.0326 1.81639,0.69766 2.35156,2.14063 0.68591,1.84961 2.08792,2.82494 3.11524,2.16797 1.02735,-0.65697 1.86718,0.32067 1.86718,2.17187 0,1.85121 -0.23462,3.232 -0.52148,3.07031 -0.28694,-0.1617 -2.63466,-0.71389 -5.2168,-1.22851 -2.58202,-0.51461 -4.69531,-2.26804 -4.69531,-3.89649 0,-2.77901 1.57269,-4.48019 3.09961,-4.42578 z m 42.48242,3.64063 c -0.41748,0.019 -0.78812,0.1573 -1.06836,0.44726 -0.61198,0.63363 -0.49472,2.18866 0.26172,3.45508 1.69992,2.84594 5.30078,3.03055 5.30078,0.27149 0,-2.06964 -2.68504,-4.25599 -4.49414,-4.17383 z m 54.27734,5.07031 c -1.29666,0.007 -2.85093,0.32095 -4.58203,1.00195 -5.50121,2.16417 -6.85609,4.54673 -4.16601,7.33008 2.46168,2.54721 8.4548,1.53592 11.20312,-1.89062 2.99917,-3.73921 1.4349,-6.46311 -2.45508,-6.44141 z m -44.91406,2.0918 c -0.38067,-0.0202 -0.9326,0.10243 -1.6289,0.3789 -1.78103,0.70716 -3.23829,1.66612 -3.23829,2.13282 0,1.74855 3.97585,0.76629 5.20118,-1.28516 0.45687,-0.76487 0.30046,-1.19296 -0.33399,-1.22656 z m 185.59766,5.58594 c 1.96464,5.4e-4 3.8115,0.7329 4.73633,2.28124 0.77109,1.2909 0.35721,3.42857 -0.91993,4.75 -1.70498,1.76406 -2.32226,1.71286 -2.32226,-0.18945 0,-1.42492 -0.99364,-2.58984 -2.20899,-2.58984 -1.21598,0 -1.67001,0.9044 -1.00976,2.00976 0.66028,1.1054 0.18206,2.66118 -1.0625,3.45703 -1.24475,0.79586 -1.7699,2.77348 -1.16797,4.39649 0.60189,1.62297 0.23687,3.50015 -0.81055,4.16992 -1.04749,0.66977 -1.41027,2.5482 -0.80664,4.17578 0.60359,1.62754 -0.9621,7.9122 -3.47851,13.96485 -3.98559,9.58647 -5.34919,11.0039 -10.57813,11.0039 -3.72317,0 -6.00195,-1.13366 -6.00195,-2.98828 0,-4.69035 -9.35314,-10.21776 -12.23828,-7.23242 -3.3721,3.48918 -3.04327,-0.52905 0.82617,-10.11133 1.75612,-4.34884 4.11837,-7.31546 5.25,-6.5918 1.13144,0.72359 1.42802,2.36935 0.6582,3.65821 -0.79978,1.33901 -0.43723,1.72792 0.84766,0.90625 1.23677,-0.79087 1.86187,-4.66876 1.38867,-8.61719 -0.69434,-5.7925 0.0426,-7.62885 3.8125,-9.50977 7.40957,-3.6969 13.94265,-4.63508 15.39062,-2.21093 0.8174,1.36845 2.07133,0.87082 3.23633,-1.28321 1.21228,-2.2414 3.93302,-3.44991 6.45899,-3.44921 z m -427.81641,0.78124 c -6.08645,0.027 -15.08789,1.28862 -22.41992,3.45313 -7.96729,2.35204 -23.73233,6.20121 -26.21094,6.40039 -0.64433,0.0517 -2.99015,1.84303 -5.21484,3.98047 -2.22464,2.13747 -7.3311,5.78033 -11.34766,8.0957 -4.01656,2.31534 -8.82175,5.9103 -10.67773,7.98828 -1.85598,2.07799 -4.46688,3.77735 -5.80274,3.77735 -1.33591,0 -2.99188,1.51392 -3.67773,3.36328 -0.68585,1.84936 -2.38305,2.9095 -3.77344,2.35742 -1.39039,-0.55204 -5.18373,1.90662 -8.42773,5.46289 -4.43005,4.85662 -5.22792,6.89372 -3.21094,8.18359 1.81618,1.16142 0.0802,2.60664 -5.36133,4.46485 -7.31143,2.49675 -27.92383,20.04419 -27.92383,23.77148 0,0.85217 1.87674,2.05672 4.17188,2.67774 3.30321,0.89382 4.17383,2.94504 4.17383,9.83984 0,4.79074 0.9548,9.32056 2.12109,10.06641 1.16651,0.74581 1.57543,2.26707 0.91016,3.38086 -0.66521,1.11375 0.16662,2.57081 1.84765,3.23828 2.71489,1.07799 5.50719,6.57336 6.49805,12.78906 0.18932,1.18738 1.083,6.99855 1.98633,12.91211 0.90332,5.91349 3.32046,13.19931 5.37304,16.19141 4.04064,5.8905 4.15717,20.39865 0.19532,24.49804 -1.23129,1.2742 -2.24024,1.51761 -2.24024,0.54102 0,-0.97671 -1.56077,-0.44212 -3.46875,1.1875 -0.0832,0.0711 -0.15221,0.12078 -0.23242,0.1875 h 26.89648 c 8.01268,-3.37664 15.83596,-11.64531 18.78516,-20.78711 2.46553,-7.64266 6.55394,-13.46344 15.11719,-21.52344 9.09845,-8.5638 11.27804,-11.77491 9.69336,-14.28515 -1.12442,-1.78107 -2.05841,-2.39144 -2.07617,-1.35547 -0.0176,1.03597 -1.44075,0.67352 -3.16211,-0.80469 -4.25593,-3.65473 -3.95233,-10.27584 0.52148,-11.36914 2.69307,-0.65817 2.10636,-1.33896 -2.23828,-2.5918 -3.81234,-1.09927 -6.75664,-0.7958 -8.3457,0.86133 -1.88857,1.96947 -1.61315,2.22935 1.19531,1.12305 2.00822,-0.7911 3.65039,-0.52475 3.65039,0.59179 0,2.65735 -6.60109,2.73078 -9.81836,0.10938 -1.38424,-1.12774 -3.4975,-1.42225 -4.69531,-0.65625 -1.19787,0.76603 -2.17774,0.36295 -2.17774,-0.89453 0,-3.28778 -3.36358,-2.81485 -7.04101,0.99023 -1.74189,1.80231 -3.92162,3.14652 -4.84375,2.98438 -4.17483,-0.73263 -5.57287,0.46386 -2.7207,2.33008 2.7289,1.78548 2.64727,2.54202 -0.63477,5.90429 -3.52164,3.60794 -3.67514,3.61285 -2.38477,0.0781 0.79669,-2.18238 0.40446,-3.77735 -0.92968,-3.77735 -1.27039,0 -2.31055,1.45714 -2.31055,3.23828 0,1.78114 -1.40754,3.23829 -3.12891,3.23829 -1.72136,0 -3.13086,-0.96134 -3.13086,-2.13477 0,-1.17343 -2.1113,-1.90185 -4.69336,-1.61914 -3.91065,0.42837 -4.57255,-0.38703 -3.95898,-4.88281 0.77144,-5.65195 5.01775,-10.01574 6.22266,-6.39453 0.78941,2.37233 4.51757,0.6252 4.51757,-2.11719 0,-0.97882 -1.87863,-2.28719 -4.17382,-2.9082 -2.29514,-0.62106 -4.17383,-0.24814 -4.17383,0.82812 0,1.07626 -1.05373,1.95703 -2.3418,1.95703 -1.61807,0 -1.53879,-1.0008 0.25586,-3.23828 1.42859,-1.7811 3.89176,-3.24023 5.47266,-3.24023 1.58083,0 2.87304,-1.94158 2.87304,-4.31641 0,-2.37483 1.08471,-4.31836 2.41016,-4.31836 1.34135,0 0.64788,-2.07651 -1.56445,-4.68359 -3.92136,-4.62082 -3.91955,-4.65987 0.19726,-2.9375 5.52087,2.30985 12.38924,2.62876 13.04102,0.60546 1.37395,-4.26493 0.2324,-8.09765 -2.41211,-8.09765 -4.63168,0 0.6963,-9.76993 7.64258,-14.01563 3.18911,-1.94925 5.31778,-4.34852 4.73047,-5.33203 -0.58744,-0.98347 0.15951,-2.27532 1.66015,-2.87109 3.57179,-1.41823 13.68565,0.61739 15.13672,3.04687 0.62458,1.04565 2.72351,1.9147 4.66406,1.9336 5.01737,0.047 7.96348,2.48541 9.61133,7.95117 1.15038,3.8157 0.21826,5.39481 -4.76367,8.06055 -11.13211,5.95642 -14.7449,20.6582 -5.07617,20.6582 1.49188,0 2.7168,1.21297 2.72851,2.69727 0.0206,3.41809 8.58525,7.6037 14.88086,7.27148 5.0997,-0.26903 11.25203,-9.68508 8.31446,-12.72461 -0.91623,-0.94806 -4.30653,-0.68537 -7.53321,0.58398 -5.16463,2.03173 -5.54807,1.9134 -3.21289,-0.99804 1.459,-1.81894 4.20584,-3.30664 6.10547,-3.30664 6.36996,0 11.21434,-8.45501 10.03906,-17.52149 -1.10448,-8.52026 -3.34359,-11.70172 -11.72265,-16.66015 -3.48585,-2.06272 -5.49773,-2.21472 -7.11719,-0.53907 -1.24175,1.28489 -3.16606,2.33594 -4.27539,2.33594 -1.10957,0 -1.35628,-0.6841 -0.54883,-1.51953 0.80739,-0.8355 -2.52166,-3.13256 -7.39844,-5.10547 -7.82582,-3.166 -8.33327,-3.76281 -4.32812,-5.07812 2.49587,-0.81967 6.38926,-0.46416 8.65234,0.78906 6.29098,3.48374 9.64049,2.98614 6.47461,-0.96094 -1.4286,-1.7811 -4.90835,-3.23828 -7.73242,-3.23828 -7.36803,0 -4.90263,-4.81147 3.63867,-7.10156 5.404,-1.44892 8.50975,-1.04032 13.00781,1.70898 3.24963,1.98622 7.23808,3.08282 8.86328,2.4375 1.6252,-0.64528 3.50923,-0.24493 4.1875,0.89063 1.93684,3.2426 7.2461,2.41253 7.2461,-1.13282 0,-1.7585 -2.58045,-3.78254 -5.73633,-4.49804 -15.72079,-3.56429 -14.78339,-6.64914 2.60742,-8.57617 7.4593,-0.82659 13.5625,-2.0115 13.5625,-2.63282 0,-2.24292 -7.38798,-6.86632 -11.07812,-6.93359 -2.07599,-0.0378 -3.1837,-1.05691 -2.46289,-2.26367 0.7208,-1.20681 2.18366,-1.63436 3.25195,-0.95117 1.06828,0.68315 1.94336,0.21256 1.94336,-1.04493 0,-1.25752 1.46286,-2.28515 3.25195,-2.28515 1.78893,0 2.67211,-0.97274 1.96289,-2.16016 -0.75439,-1.263 1.41091,-2.1582 5.2168,-2.1582 3.71657,0 5.964,-0.90677 5.24219,-2.11524 -0.56307,-0.94269 -3.16454,-1.37169 -6.81641,-1.35547 z m 392.92578,4.45508 c 0.66335,-0.1159 1.21944,0.92903 1.94336,3.28907 0.99058,3.22945 0.3722,5.9977 -1.85742,8.30468 -3.06814,3.17447 -3.33896,3.01941 -3.3125,-1.86133 0.0175,-2.92614 0.85294,-6.66158 1.85742,-8.30273 0.53395,-0.8723 0.97113,-1.36015 1.36914,-1.42969 z M 432.5,386.05469 c 1.14758,0 2.08789,0.91391 2.08789,2.03125 0,1.11734 -0.94031,2.63136 -2.08789,3.36523 -1.14762,0.73387 -2.08594,-0.18004 -2.08594,-2.03125 0,-1.85121 0.93832,-3.36523 2.08594,-3.36523 z m 51.15234,0.875 c -0.20609,0.011 -0.4227,0.06 -0.65039,0.15039 -1.56888,0.62298 -3.81562,1.13281 -4.99218,1.13281 -1.1765,0 -1.59809,1.45718 -0.9375,3.23828 1.36883,3.69101 -0.97988,4.30247 -4.10547,1.06836 -1.40637,-1.45515 -3.57708,-0.74413 -6.58789,2.1582 -5.03675,4.8553 -9.24256,5.41355 -15.33985,2.03711 -4.88424,-2.70466 -16.45117,1.60897 -16.45117,6.13477 0,2.11835 1.00044,2.23276 4.17188,0.47656 2.29519,-1.27098 4.17382,-3.30576 4.17382,-4.52148 0,-1.21573 1.03845,-1.5466 2.3086,-0.73438 1.67713,1.07256 1.66192,1.89197 -0.0586,2.99219 -3.32432,2.12591 -4.26378,17.375 -1.07031,17.375 1.37851,0 2.99743,1.94353 3.59766,4.31836 0.86513,3.42308 2.84536,4.31836 9.55859,4.31836 6.3326,0 9.031,-1.08936 10.70117,-4.31836 1.97836,-3.82496 4.36963,-4.31836 20.93946,-4.31836 11.18388,0 18.70507,0.87595 18.70507,2.17773 0,1.29056 1.70025,1.07887 4.17383,-0.51953 2.29512,-1.48308 4.17188,-3.80026 4.17188,-5.15039 0,-1.35012 1.40947,-3.66436 3.13086,-5.14258 4.59545,-3.94631 4.13204,-15.11328 -0.62696,-15.11328 -2.06566,0 -4.88269,1.16688 -6.25976,2.5918 -1.64791,1.70506 -2.50391,1.7894 -2.50391,0.25 0,-3.07366 -8.55457,-5.33106 -11.36719,-3 -1.20729,1.00063 -5.48146,2.47645 -9.49804,3.2793 -4.11432,0.82257 -6.2048,0.66611 -4.78906,-0.35743 3.31083,-2.39353 2.69684,-10.68794 -0.39454,-10.52343 z m -222.36914,1.2832 c -1.21522,0 -1.62919,0.97079 -0.91992,2.1582 0.70927,1.18742 1.7027,2.16016 2.20899,2.16016 0.50608,0 0.91992,-0.97274 0.91992,-2.16016 0,-1.18741 -0.99366,-2.1582 -2.20899,-2.1582 z m 464.08985,2.90625 c -0.31626,-0.0495 -0.53311,0.73864 -0.59571,2.31055 h 0.002 c -0.0906,2.27584 0.40238,3.55137 1.0957,2.83398 0.69317,-0.71739 0.76675,-2.57823 0.16406,-4.13672 -0.24979,-0.64584 -0.47626,-0.97808 -0.66601,-1.00781 z m -126.07422,1.41211 c -1.21531,0 -1.62911,0.97079 -0.91992,2.1582 0.70926,1.18742 1.70271,2.16016 2.20898,2.16016 0.50615,0 0.91992,-0.97274 0.91992,-2.16016 0,-1.18741 -0.99367,-2.1582 -2.20898,-2.1582 z m -12.40821,3.22266 c -1.53695,-0.0511 -6.04058,7.22068 -6.17382,10.42773 -0.0407,0.97765 1.56991,1.44824 3.57812,1.04492 3.43208,-0.68927 5.09311,-6.96276 2.96875,-11.20898 -0.0874,-0.17466 -0.21405,-0.25838 -0.37305,-0.26367 z m 146.20704,2.3164 c -1.04701,-0.13481 -2.93588,3.1021 -4.35547,7.55274 -2.38137,7.46592 -2.29657,9.62013 0.62304,15.95507 2.04303,4.43298 5.27165,7.70008 8.17969,8.2754 2.64246,0.52278 5.50851,1.08275 6.36914,1.24414 2.60814,0.49001 1.85783,-1.3054 -5.53515,-13.26368 -5.17539,-8.37736 -6.58172,-12.4356 -5.18946,-15.00976 1.05744,-1.95534 1.10564,-4.04136 0.10743,-4.67969 -0.0619,-0.0396 -0.12942,-0.0652 -0.19922,-0.0742 z m 66.63086,1.15235 c 0.76504,0 1.53024,0.50421 2.5039,1.51172 1.94744,2.01497 1.3909,2.59179 -2.5039,2.59179 -3.89488,0 -4.45135,-0.57682 -2.50391,-2.59179 0.97372,-1.00751 1.73886,-1.51172 2.50391,-1.51172 z m -344.2754,1.94336 c 1.14762,0 2.08594,0.97274 2.08594,2.16015 0,1.18742 -0.93832,2.15821 -2.08594,2.15821 -1.14754,0 -2.08789,-0.97079 -2.08789,-2.15821 0,-1.18741 0.94035,-2.16015 2.08789,-2.16015 z m 112.74415,7.60351 c -1.43807,-0.0454 -3.18184,0.96647 -3.79102,2.85742 -0.58503,1.81576 0.36935,2.62648 2.54492,2.16016 1.91418,-0.41027 3.42999,-1.71884 3.36914,-2.90625 -0.0716,-1.40197 -1.00455,-2.07602 -2.12304,-2.11133 z m -96.05274,3.19141 c 1.1475,0 2.08594,0.97274 2.08594,2.16015 0,1.18742 -0.93844,2.15821 -2.08594,2.15821 -1.14761,0 -2.08594,-0.97079 -2.08594,-2.15821 0,-1.18741 0.93833,-2.16015 2.08594,-2.16015 z m 335.92969,8.63672 c 1.14761,0 2.08594,0.97079 2.08594,2.1582 0,1.18741 -0.93833,2.1582 -2.08594,2.1582 -1.14762,0 -2.08594,-0.97079 -2.08594,-2.1582 0,-1.18741 0.93832,-2.1582 2.08594,-2.1582 z m -534.6211,19.49804 c -0.0383,0.0134 -0.0766,0.0495 -0.11718,0.11133 -0.32471,0.49474 -1.86683,2.6214 -3.42578,4.72656 -2.46784,3.33226 -2.39186,3.65269 0.58984,2.46875 1.88372,-0.74793 3.42578,-2.87455 3.42578,-4.72656 0,-1.6205 -0.2043,-2.67365 -0.47266,-2.58008 z m -103.97656,4.25 c 1.21526,0 2.20899,0.97079 2.20899,2.15821 0,1.18741 -0.41364,2.16015 -0.91993,2.16015 -0.50604,0 -1.49977,-0.97274 -2.20898,-2.16015 -0.70927,-1.18742 -0.2954,-2.15821 0.91992,-2.15821 z m 86.03321,1.61719 c -0.87792,-0.0128 -1.59921,0.55946 -2.48047,1.6582 -1.3206,1.64614 -1.79087,4.9842 -1.04492,7.41602 0.78858,2.57095 0.4259,4.41992 -0.86915,4.41992 -1.2249,0 -2.22851,0.97274 -2.22851,2.16016 0,2.67269 0.0417,2.67227 7.86719,-0.15039 8.45956,-3.0514 9.60487,-7.00602 3.59375,-12.41407 -2.32084,-2.08801 -3.70915,-3.07342 -4.83789,-3.08984 z m 531.46484,3.03125 c 0.28312,-0.0509 0.0525,0.80721 -0.5293,2.54492 -0.72816,2.17508 -1.32226,4.84715 -1.32226,5.9375 0,1.09025 -0.94028,1.98242 -2.08789,1.98242 -2.9551,0 -2.48521,-2.55216 1.39062,-7.55664 1.46942,-1.8973 2.26571,-2.85729 2.54883,-2.9082 z m 67.00195,23.41797 c -1.14754,0 -2.08594,0.97079 -2.08594,2.1582 0,1.18742 0.9384,2.16016 2.08594,2.16016 1.14758,0 2.08789,-0.97274 2.08789,-2.16016 0,-1.18741 -0.94031,-2.1582 -2.08789,-2.1582 z m 14.37696,0.20508 c -0.58186,-0.0238 -1.29657,0.0279 -2.14649,0.15234 -2.70988,0.39678 -4.96819,2.1798 -5.02148,3.96094 -0.0522,1.78114 -1.22702,2.99434 -2.60938,2.69726 -1.38225,-0.29684 -2.51172,0.43177 -2.51172,1.61915 0,1.18741 1.83016,2.16015 4.06836,2.16015 4.86395,0 8.29812,5.53258 6.89063,11.10156 -0.5576,2.20619 0.0349,4.00977 1.3164,4.00977 3.09782,0 2.99979,10.11226 -0.11718,12.10547 -1.46351,0.93592 -5.3576,-1.83313 -9.69336,-6.89063 -3.98582,-4.6495 -6.13055,-6.84571 -4.76758,-4.88281 3.36703,4.84891 6.62373,17.10397 5.18555,19.51172 -0.6553,1.09712 -2.48291,0.82677 -4.16211,-0.61523 -1.64693,-1.41442 -3.58323,-1.96321 -4.30274,-1.21876 -0.71947,0.74442 -2.54521,-0.33112 -4.05664,-2.39062 -1.51147,-2.05958 -2.77666,-2.65228 -2.81445,-1.31641 -0.0365,1.33584 -3.03415,3.04458 -6.66016,3.79493 -3.62611,0.75038 -5.95598,2.02293 -5.17773,2.82812 1.45455,1.50508 -16.42193,11.11137 -21.0918,11.33398 -6.26604,0.299 0.57984,10.04043 8.50195,12.09766 3.09963,0.80504 6.32778,2.65432 7.17383,4.11133 0.84609,1.45708 3.41575,3.74889 5.71094,5.0918 4.97552,2.91106 10.81084,3.27506 12.30859,0.76757 0.59312,-0.99299 5.37031,-1.97483 10.61524,-2.17968 16.28111,-0.63719 24.10074,-9.54978 22.45117,-25.58594 -0.59006,-5.73581 0.29278,-11.59893 2.40625,-15.98242 4.35934,-9.04188 4.21797,-11.24772 -1.04688,-16.17774 -5.63142,-5.27319 -9.92683,-14.09946 -8.6582,-17.79297 0.51205,-1.49051 -0.0455,-2.23913 -1.79101,-2.31054 z m -762.16602,4.28906 -17.445312,0.52148 c -11.233066,0.33563 -18.019466,1.48298 -19.058594,3.22266 -0.96028,1.60774 -3.171893,2.08468 -5.460938,1.17578 -3.062373,-1.21591 -3.562157,-0.75872 -2.449218,2.24219 0.768888,2.07333 0.267049,5.88505 -1.117188,8.4707 -1.384237,2.58569 -2.279305,5.91422 -1.988281,7.39844 0.291114,1.48433 -0.384106,2.69922 -1.5,2.69922 -5.234839,0 -8.585938,7.22401 -8.585938,18.50586 0,6.44598 0.703772,11.71056 1.564453,11.69922 0.860686,-0.0108 3.78292,-2.92506 6.494141,-6.47657 2.711225,-3.55143 6.242574,-6.45703 7.847656,-6.45703 1.605033,0 7.106822,-2.18575 12.226563,-4.85742 9.085735,-4.7413 11.580422,-8.61996 7.302734,-11.35547 -1.166309,-0.74581 -1.575837,-2.26834 -0.910156,-3.38281 0.67751,-1.13424 2.5966,-0.59341 4.357422,1.22852 4.626996,4.78752 13.962966,4.00054 19.033206,-1.60352 3.94878,-4.36445 4.157,-5.77875 2.04297,-13.94336 z m 79.18359,1.98242 c -0.50604,0 -1.49971,0.97083 -2.20898,2.15821 -0.70927,1.18741 -0.2954,2.16015 0.91992,2.16015 1.21532,0 2.20899,-0.97274 2.20899,-2.16015 0,-1.18738 -0.41364,-2.15821 -0.91993,-2.15821 z m 665.1875,2.15821 c -1.6388,-10e-6 -2.84179,2.28448 -2.84179,5.39843 0,2.96856 0.82989,5.39649 1.84375,5.39649 1.01378,0 2.2935,-2.42793 2.84179,-5.39649 0.66864,-3.61924 0.0609,-5.39843 -1.84375,-5.39843 z m -42.20703,16.13671 c -0.45555,0.0233 -1.01301,0.14367 -1.6875,0.32618 -2.20686,0.59712 -5.16511,2.99465 -6.57226,5.32617 -2.10819,3.49281 -1.90647,5.14819 1.14648,9.40625 4.54341,6.33683 6.81531,4.4066 8.30078,-7.05274 0.82766,-6.38451 0.78656,-8.10679 -1.1875,-8.00586 z m -615.64258,1.13477 c 0.989,0 1.2582,1.45714 0.59766,3.23828 -0.6606,1.78114 -2.0112,3.23828 -3,3.23828 -0.98893,0 -1.25624,-1.45714 -0.5957,-3.23828 0.66053,-1.78114 2.00925,-3.23828 2.99804,-3.23828 z m 610.02735,22.31641 c -0.55524,0.0569 -0.92188,0.51875 -0.92188,1.30468 0,1.25745 0.93836,2.28711 2.08594,2.28711 1.14754,0 2.08789,-0.42928 2.08789,-0.95312 0,-0.52369 -0.94035,-1.55133 -2.08789,-2.28516 -0.43034,-0.2752 -0.83092,-0.38764 -1.16406,-0.35351 z m -695.23047,1.85742 c -1.16891,-0.12228 -1.92493,0.76366 -3.19336,2.55859 -1.47668,2.08955 -3.58764,3.5724 -4.691406,3.29688 -1.103713,-0.27553 -4.650342,0.62862 -7.88086,2.00781 -3.230577,1.37915 -6.668036,2.50586 -7.638672,2.50586 -0.970575,0 -5.838846,4.94597 -10.818359,10.99023 -4.476682,5.43395 -10.094957,10.98848 -13.273437,13.20313 0.09129,0.008 0.186621,0.0109 0.277343,0.0195 h 52.410161 c 3.29965,-3.22637 6.76878,-8.72383 8.32617,-14.10938 3.19769,-11.05836 3.2473,-12.26172 0.50195,-12.26172 -1.19403,0 -4.95165,-2.12715 -8.34961,-4.72656 -2.91885,-2.2329 -4.50101,-3.3621 -5.66992,-3.48437 z m 744.38476,3.89258 c 1.14755,0 2.08594,2.91432 2.08594,6.47656 0,3.56224 -0.93839,6.47851 -2.08594,6.47851 -1.14761,0 -2.08593,1.45707 -2.08593,3.23828 0,1.78111 -0.93832,3.23829 -2.08594,3.23829 -1.14758,0 -2.08789,-1.88669 -2.08789,-4.19141 0,-2.30483 0.94031,-4.79152 2.08789,-5.52539 1.14762,-0.73387 2.08594,-3.21872 2.08594,-5.52344 0,-2.30479 0.93832,-4.1914 2.08593,-4.1914 z M 46.494141,539.33984 c -1.147597,0 -2.085938,0.97079 -2.085938,2.15821 0,1.18741 0.938341,2.1582 2.085938,2.1582 1.147536,0 2.08789,-0.97079 2.08789,-2.1582 0,-1.18742 -0.940354,-2.15821 -2.08789,-2.15821 z m 94.263669,16.1211 c -0.33823,-0.0209 -0.6853,0.0258 -1.02539,0.15234 -1.06058,0.39444 -4.73494,0.98097 -8.91992,1.46094 h 12.14453 c -0.39258,-0.94526 -1.25156,-1.55465 -2.19922,-1.61328 z"
         style="display:inline;fill:#000000;stroke-width:2.12242126" />
    </g>
    <g
       sodipodi:insensitive="true"
       style="display:inline"
       inkscape:label="Bursts"
       id="layer2">
      <path
         inkscape:connector-curvature="0"
         id="rect1091"
         transform="scale(0.26458333)"
         d="m 179.38672,295.81055 v 64.75976 l 31.1582,-3.50976 v -57.73828 z m 36.82812,4.15039 v 56.46094 l 39.03321,-4.39844 v -47.66406 z m 44.70313,5.03711 v 46.38672 l 39.0332,-4.39844 v -37.58985 z m 44.70312,5.03711 v 36.3125 l 2.6836,-0.30274 c 3.70377,-1.70363 7.29856,-3.79832 11.04297,-5.99023 7.99513,-4.36882 16.627,-7.33172 25.30859,-10.30078 v -15.32032 z m 44.70313,5.03711 v 12.72265 c 0.45689,-0.16017 0.91471,-0.31244 1.37109,-0.47461 8.42152,-0.57771 9.8885,-5.27676 10.98438,-10.85547 z"
         style="fill:#000000;fill-opacity:1;stroke:none;stroke-width:0.03779528;stroke-miterlimit:4;stroke-dasharray:none;stroke-opacity:1" />
      <path
         inkscape:connector-curvature="0"
         id="path1109"
         transform="scale(0.26458333)"
         d="m 221.89453,174.33008 -28.09765,58.3457 29.5957,10.35742 25.05078,-52.01953 z m 31.38086,19.71875 -24.49805,50.86914 37.07618,12.97265 20.68164,-42.94335 z m 38.08984,23.93359 -20.125,41.79297 37.07618,12.97266 16.30859,-33.86719 z m 38.0918,23.9336 -15.75586,32.71679 37.07813,12.97461 4.48242,-9.30859 c -1.68634,-2.54947 -3.45647,-5.00994 -5.20508,-7.37695 -5.87973,-6.49452 -10.80496,-15.16452 -12.88281,-24.15626 z m 29.32031,42.14453 -2.61523,5.42968 6.1582,2.1543 c -0.98205,-2.6131 -2.18692,-5.13987 -3.54297,-7.58398 z"
         style="display:inline;fill:#000000;fill-opacity:1;stroke:none;stroke-width:0.03779528;stroke-miterlimit:4;stroke-dasharray:none;stroke-opacity:1" />
      <path
         inkscape:connector-curvature="0"
         id="path4800"
         transform="scale(0.26458333)"
         d="m 312.90234,83.324219 -50.63086,40.376951 22.16993,22.17188 45.14257,-36 z m 19.7168,31.380861 -44.14258,35.20312 27.77539,27.77539 37.26563,-29.71875 z m 23.93359,38.08984 -36.26757,28.92188 27.77734,27.77539 25.08984,-20.00977 c 0.71712,-2.12325 1.56287,-4.21671 2.51172,-6.27344 z m 14.30665,45.76953 -9.21485,7.34766 c 4.29434,-1.49659 8.00926,-3.30336 9.21485,-7.34766 z"
         style="display:inline;fill:#000000;fill-opacity:1;stroke:none;stroke-width:0.03779528;stroke-miterlimit:4;stroke-dasharray:none;stroke-opacity:1" />
      <path
         inkscape:connector-curvature="0"
         id="path4802"
         transform="scale(0.26458333)"
         d="m 434.38281,40.816406 -46.08203,10.517578 c 2.51308,10.079431 5.02598,20.158851 7.53906,30.238282 l 42.05274,-9.597657 z m 4.14844,36.828125 -41.31836,9.431641 c 3.14808,12.626253 6.29528,25.252648 9.44336,37.878908 l 36.27148,-8.27735 z m 5.03711,44.703129 -35.53906,8.11132 c 1.13205,4.54041 2.26443,9.0807 3.39648,13.6211 5.77836,-5.29584 11.88052,-10.15408 19.28516,-13.27344 4.4175,-2.23759 8.95924,-2.78507 13.51562,-2.61719 z"
         style="display:inline;fill:#000000;fill-opacity:1;stroke:none;stroke-width:0.03779528;stroke-miterlimit:4;stroke-dasharray:none;stroke-opacity:1" />
      <path
         inkscape:connector-curvature="0"
         id="path4804"
         transform="scale(0.26458333)"
         d="m 499.13867,40.816406 -1.57422,13.966797 c 1.19566,6.151111 2.39224,12.302014 3.58789,18.453125 l 50.76563,11.585938 10.35742,-29.595704 z m 3.19531,38.503906 c 2.71463,13.965558 5.42991,27.930928 8.14454,41.896488 l 26.58203,6.0664 12.97265,-37.076169 z m 9.32813,47.982418 c 0.092,0.47327 0.1834,0.94666 0.27539,1.41993 2.11468,4.21502 3.49745,7.93598 4.27344,11.24804 6.13715,-1.33056 12.2598,-5.38541 18.81836,-6.88281 l 0.14648,-0.41797 z"
         style="display:inline;fill:#000000;fill-opacity:1;stroke:none;stroke-width:0.03779528;stroke-miterlimit:4;stroke-dasharray:none;stroke-opacity:1" />
      <path
         inkscape:connector-curvature="0"
         id="path4806"
         transform="scale(0.26458333)"
         d="M 620.61914,83.324219 603.9375,109.87305 649.07812,145.87109 671.25,123.70117 Z m -19.71875,31.378901 -20.89648,33.25977 37.26367,29.71875 27.77734,-27.77539 z m -23.93359,38.0918 -16.46485,26.20313 c 0.0213,3.52271 0.044,7.15405 0.24805,10.79101 l 24.70898,19.70117 27.7754,-27.77343 z m -15.3711,44.91797 c 1.03595,6.1708 3.08664,11.94877 7.25196,16.50977 1.2583,2.5956 2.69856,5.14065 4.21289,7.66601 l 8.36328,-8.36328 z"
         style="display:inline;fill:#000000;fill-opacity:1;stroke:none;stroke-width:0.03779528;stroke-miterlimit:4;stroke-dasharray:none;stroke-opacity:1" />
      <path
         inkscape:connector-curvature="0"
         id="path4808"
         transform="scale(0.26458333)"
         d="m 711.62695,174.33008 -26.55078,16.68164 25.05274,52.01953 29.5957,-10.35547 z m -31.38086,19.7168 -33.25976,20.89843 20.67969,42.94336 37.07617,-12.97265 z m -38.09179,23.93359 -33.25977,20.89844 16.31055,33.86718 37.07617,-12.97265 z m -38.08985,23.93555 -14.97265,9.4082 c 1.7658,5.67259 2.43346,11.6739 1.19336,18.24023 -0.99503,5.58152 -0.5362,10.54434 0.89843,15.08789 l 28.63672,-10.02148 z"
         style="display:inline;fill:#000000;fill-opacity:1;stroke:none;stroke-width:0.03779528;stroke-miterlimit:4;stroke-dasharray:none;stroke-opacity:1" />
      <path
         inkscape:connector-curvature="0"
         id="path4810"
         transform="scale(0.26458333)"
         d="m 754.13477,295.81055 -31.15821,3.50976 v 57.73828 l 31.15821,3.51172 z m -36.82813,4.14843 -39.0332,4.39844 v 47.66406 l 39.0332,4.39844 z m -44.70312,5.03711 -39.03321,4.39844 v 28.85352 c 2.17852,1.35885 4.27118,2.90403 5.83399,5.12109 6.60476,0.27548 13.72188,2.64773 20.04687,6.53125 l 13.15235,1.48242 z m -44.70313,5.03711 -16.46289,1.85547 c 3.9397,4.00251 7.78993,8.03384 10.92969,12.35352 -0.1839,5.44027 2.29027,8.26715 5.5332,10.51562 z"
         style="display:inline;fill:#000000;fill-opacity:1;stroke:none;stroke-width:0.03779528;stroke-miterlimit:4;stroke-dasharray:none;stroke-opacity:1" />
    </g>
    <g
       sodipodi:insensitive="true"
       inkscape:label="Lasers"
       id="layer3">
      <path
         inkscape:connector-curvature="0"
         id="rect4866"
         transform="scale(0.26458333)"
         d="M 348.63867,18.712891 387.72656,175.49219 410.07422,169.92188 372.375,18.712891 Z"
         style="fill:#000000;fill-opacity:1;stroke:none;stroke-width:0.03779528;stroke-miterlimit:4;stroke-dasharray:none;stroke-opacity:1" />
      <path
         inkscape:connector-curvature="0"
         id="rect4868"
         transform="scale(0.26458333)"
         d="M 459.38867,18.712891 486.23438,156.82031 508.84375,152.42578 482.85156,18.712891 Z"
         style="fill:#000000;fill-opacity:1;stroke:none;stroke-width:0.03779528;stroke-miterlimit:4;stroke-dasharray:none;stroke-opacity:1" />
    </g>
  </g>
</svg>
